<svg xmlns="http://www.w3.org/2000/svg" version="1.1" xmlns:xlink="http://www.w3.org/1999/xlink" xmlns:svgjs="http://svgjs.dev/svgjs" width="128" height="128" viewBox="0 0 128 128"><g transform="matrix(0.2861111111111111,0,0,0.2861111111111111,45.720293887622134,12.333870967741944)"><svg viewBox="0 0 55 155" data-background-color="#ffffff" preserveAspectRatio="xMidYMid meet" height="360" width="128" xmlns="http://www.w3.org/2000/svg" xmlns:xlink="http://www.w3.org/1999/xlink"><g id="tight-bounds" transform="matrix(1,0,0,1,-0.0471646673936732,0.25)"><svg viewBox="0 0 55.094329334787346 154.5" height="154.5" width="55.094329334787346"><g><svg viewBox="0 0 55.094329334787346 154.5" height="154.5" width="55.094329334787346"><g><svg viewBox="0 0 55.094329334787346 154.5" height="154.5" width="55.094329334787346"><g id="textblocktransform"><svg viewBox="0 0 55.094329334787346 154.5" height="154.5" width="55.094329334787346" id="textblock"><g><svg viewBox="0 0 55.094329334787346 154.5" height="154.5" width="55.094329334787346"><g transform="matrix(1,0,0,1,0,0)"><svg width="55.094329334787346" viewBox="0.5 -35 16.35 45.85" height="154.5" data-palette-color="#2c3ad1"><path d="M8.8 10.85L8.8 10.85Q6.35 10.85 4.48 9.95 2.6 9.05 1.55 7.25 0.5 5.45 0.5 2.85L0.5 2.85Q0.5 0.5 1.45-2.3 2.4-5.1 4.9-8.15 7.4-11.2 12.1-14.2L12.1-14.2 12.1-30.75 4.55-30.75 4.55-35 16.85-35 16.85 2.05Q16.85 4.75 15.88 6.73 14.9 8.7 13.1 9.78 11.3 10.85 8.8 10.85ZM8.45 6.55L8.45 6.55Q9.5 6.55 10.33 6.08 11.15 5.6 11.6 4.6 12.05 3.6 12.05 2.15L12.05 2.15 12.05-9.25Q8.8-6.75 7.3-4.53 5.8-2.3 5.4-0.53 5 1.25 5 2.35L5 2.35Q5 4.45 6.05 5.5 7.1 6.55 8.45 6.55Z" opacity="1" transform="matrix(1,0,0,1,0,0)" fill="#2c3ad1" class="wordmark-text-0" data-fill-palette-color="primary" id="text-0"></path></svg></g></svg></g></svg></g></svg></g></svg></g><defs></defs></svg><rect width="55.094329334787346" height="154.5" fill="none" stroke="none" visibility="hidden"></rect></g></svg></g></svg>