<svg xmlns="http://www.w3.org/2000/svg" viewBox="0 0 48 16.33">
	<defs>
		<style>.cls-1{fill:#6e00aa;}.cls-2{fill:#00cd96;}</style>
	</defs>
	<g id="Layer_2" data-name="Layer 2">
		<g id="Layer_1-2" data-name="Layer 1">
			<path class="cls-1" d="M34.53,3V6.4a3.26,3.26,0,0,1-3.26,3.26h0A3.22,3.22,0,0,1,29,8.75a3.21,3.21,0,0,1-2.26.91h0a3.28,3.28,0,0,1-1.25-.25v4.9a1,1,0,0,1-1,1h-1V4h0a1,1,0,0,1,1-1h1V6.4A1.26,1.26,0,1,0,28,6.4V4a1,1,0,0,1,1-1h1V6.4a1.26,1.26,0,1,0,2.51,0V4a1,1,0,0,1,1-1ZM19.18,6.31l2.45-2.44A.5.5,0,0,0,21.27,3H19.65L15.72,6.93a.51.51,0,0,0,.36.86H17a2.76,2.76,0,0,1,0,5.52h0a2.77,2.77,0,0,1-2.76-2.76V3h-1a1,1,0,0,0-1,1v6.54A4.76,4.76,0,0,0,17,15.31h0a4.76,4.76,0,0,0,2.17-9ZM15.83,5.4h.52l2-2A.26.26,0,0,0,18.14,3h-.53l-2,2A.25.25,0,0,0,15.83,5.4Zm-8.56.38H3.51A3.51,3.51,0,0,0,0,9.29v6H1a1,1,0,0,0,1-1v-5a1.5,1.5,0,0,1,1.5-1.5h.75A3.28,3.28,0,0,0,4,9v1a3.26,3.26,0,1,0,6.52,0V9A3.26,3.26,0,0,0,7.27,5.78Zm0,5.53h0A1.25,1.25,0,0,1,6,10.06V9A1.25,1.25,0,0,1,7.27,7.79h0A1.25,1.25,0,0,1,8.52,9v1A1.25,1.25,0,0,1,7.27,11.31Z"/>
			<path class="cls-2" d="M47.6,12.75l-.36.67a5.46,5.46,0,0,1-9.65,0c-.13-.26-.35-.67-.35-.67a5.47,5.47,0,0,1,.77-.68,1,1,0,0,1,1.36.41,3.45,3.45,0,0,0,6.1,0,1,1,0,0,1,1.36-.41A6.13,6.13,0,0,1,47.6,12.75Zm.31-6.3a14.82,14.82,0,0,0-1.13-4.32c-.12-.27-.44-.91-.44-.91l-.88.39a1,1,0,0,0-.52,1.32,10.14,10.14,0,0,1,.43,1.16A14.68,14.68,0,0,0,41.67.55L40.86,0s-.43.6-.58.83a1,1,0,0,0,.28,1.39A12.36,12.36,0,0,1,42,3.35,8.36,8.36,0,0,0,39.66,3H37V4a1,1,0,0,0,1,1h1.62a6.4,6.4,0,0,1,2.28.41A5.43,5.43,0,0,0,37,10.21a1.21,1.21,0,0,0,0,.19,1.57,1.57,0,0,0,1.09.47,1,1,0,0,0,1-.78,3.46,3.46,0,0,1,6.74,0,1,1,0,0,0,1,.78,1.59,1.59,0,0,0,1.09-.47A17.06,17.06,0,0,0,47.91,6.45Z"/>
		</g>
	</g>
</svg>