<svg width="205" height="61" viewBox="0 0 205 61" fill="none" xmlns="http://www.w3.org/2000/svg">
<path d="M168.003 39.7472C169.802 39.9053 171.433 40.4996 172.898 41.5714C173.319 41.8758 173.715 42.213 174.086 42.5755C175.204 43.6688 176.505 44.4481 178.003 44.9133C179.078 45.2473 180.179 45.4006 181.304 45.3489C185.732 45.1451 189.279 42.0834 190.299 38.1149C190.59 36.9866 190.668 35.833 190.548 34.6752C190.171 31.0444 187.636 27.8257 184.001 26.5952C182.926 26.2311 181.819 26.0499 180.683 26.08C178.099 26.1477 175.876 27.097 174.036 28.8943C172.617 30.2791 170.989 31.3085 169.11 31.9566C168.093 32.3077 167.061 32.5164 165.986 32.6068C160.085 33.1021 154.767 29.5934 152.782 24.3197C152.426 23.3737 152.187 22.4035 152.061 21.4005C151.967 20.6465 151.936 19.8909 151.981 19.1342C152.149 16.3151 153.113 13.7912 154.931 11.6179C156.741 9.45376 159.044 8.02159 161.793 7.33589C163 7.03472 164.239 6.9121 165.483 6.97502C168.816 7.14389 171.672 8.41634 174.048 10.7391C175.853 12.5036 177.974 13.6599 180.446 14.2015C181.327 14.3946 182.212 14.5027 183.116 14.4989C183.208 14.4989 183.41 14.4994 183.503 14.5021C183.416 14.5554 183.319 14.6102 183.273 14.6355C182.582 15.0168 181.852 15.2959 181.088 15.4971C180.119 15.752 179.141 15.8617 178.14 15.8036C175.73 15.6708 173.569 14.7565 171.805 13.0458C171.188 12.4257 170.503 11.8927 169.741 11.4565C168.64 10.8268 167.444 10.4105 166.185 10.2502C161.027 9.59467 156.573 12.9489 155.454 17.5558C155.212 18.5486 155.148 19.5591 155.226 20.5815C155.536 24.6795 158.499 28.1613 162.54 29.1567C163.565 29.409 164.603 29.5149 165.656 29.4262C168.037 29.2256 170.069 28.2796 171.766 26.6145C173.415 24.9963 175.356 23.8814 177.598 23.2941C178.896 22.9537 180.216 22.8107 181.557 22.887C184.714 23.0672 187.475 24.2192 189.776 26.3677C191.765 28.2247 193.03 30.5255 193.581 33.1817C193.797 34.2218 193.864 35.2662 193.817 36.3294C193.596 41.317 190.409 45.7157 185.809 47.6002C184.731 48.0417 183.622 48.323 182.465 48.4639C178.54 48.9426 174.629 47.6239 171.812 44.8493C170.682 43.7355 169.408 42.832 167.958 42.1786C166.832 41.6714 164.902 40.9857 162.265 41.0304C164.808 39.5713 167.085 39.666 168.003 39.7466L168.003 39.7472Z" fill="white"/>
<path d="M170.449 16.0646C170.074 15.814 169.728 15.5273 169.405 15.2133C167.715 13.5697 165.327 13.0061 163.127 13.6316C159.76 14.5889 157.766 18.0061 158.63 21.3867C159.492 24.762 162.904 26.853 166.361 26.0613C167.545 25.7903 168.56 25.217 169.433 24.3769C169.749 24.0714 170.068 23.7665 170.404 23.4836C171.78 22.3295 173.264 21.4443 174.842 20.8102C176.577 20.1132 178.427 19.7206 180.403 19.6464C181.113 19.6195 181.821 19.655 182.529 19.7254C183.314 19.8034 184.094 19.9357 184.859 20.1266C186.722 20.5918 188.486 21.3932 190.06 22.4693C192.037 23.8214 193.715 25.6085 194.935 27.7177C196.132 29.7851 196.815 32.0035 197.017 34.3785C197.082 35.1416 197.092 35.9015 197.043 36.6679C196.985 37.58 196.867 38.497 196.65 39.3843C196.156 41.4092 195.338 43.2199 194.219 44.8328C193.208 46.2897 191.954 47.5864 190.422 48.6926C187.897 50.5163 185.023 51.5419 181.896 51.7431C180.937 51.8049 179.965 51.7769 179.007 51.6651C177.799 51.5242 176.621 51.2515 175.476 50.846C173.216 50.0447 171.228 48.7954 169.519 47.1206C169.131 46.7399 168.733 46.3704 168.309 46.0284C165.332 43.6255 161.934 42.4143 158.101 42.3681C157.129 42.3562 156.173 42.4493 155.215 42.6133C153.93 42.8338 152.391 43.3189 151.37 43.7959C153.391 43.5846 155.368 43.7287 156.763 43.9696C158.79 44.3203 160.714 44.9673 162.533 45.924C164.274 46.8399 165.832 47.9951 167.228 49.3783C168.704 50.8422 170.382 52.0367 172.248 52.9623C174.57 54.1132 177.034 54.7698 179.62 54.9398C180.762 55.0145 181.905 54.9887 183.043 54.8618C183.965 54.7596 184.878 54.6053 185.772 54.3654C190.55 53.0844 194.35 50.4077 197.098 46.3215C199.088 43.3635 200.123 40.0722 200.287 36.5205C200.336 35.4621 200.285 34.3989 200.154 33.3459C200.035 32.388 199.855 31.4582 199.593 30.5294C198.168 25.4837 194.739 21.2361 190.102 18.7434C187.261 17.2166 184.228 16.4647 180.999 16.4421C180.315 16.4373 179.626 16.4599 178.945 16.526C178.057 16.6121 177.2 16.7718 176.321 16.981C173.268 17.7071 170.372 19.1715 167.767 21.5271C167.216 22.0256 166.885 22.4742 166.141 22.778C165.563 23.0136 164.877 23.1206 164.059 22.9114C162.533 22.5209 161.327 20.9226 161.748 19.0639C162.136 17.35 163.901 16.2701 165.62 16.6739C166.226 16.8159 166.751 17.1155 167.195 17.5463C167.775 18.1093 168.466 18.4223 169.278 18.4675C170.664 18.545 171.752 17.763 172.252 16.8977C171.77 16.7369 171.317 16.6454 170.449 16.0641V16.0646Z" fill="white"/>
<path d="M173.548 38.6117C174.868 36.5336 177.43 36.7509 178.582 37.968C179.063 38.4262 179.616 38.7419 180.273 38.8645C182.022 39.1909 183.603 38.1196 184.024 36.5471C184.218 35.8184 184.155 35.0719 183.874 34.426C183.501 33.5698 182.659 32.7857 181.552 32.5603C180.487 32.3441 179.466 32.6426 178.635 33.4111C178.28 33.7392 177.939 34.0818 177.573 34.3964C175.037 36.5697 172.127 38.0002 168.85 38.6848C167.319 39.0043 165.77 39.1237 164.205 39.0726C155.972 38.8037 148.828 33.3337 146.381 25.5861C146.051 24.5422 145.816 23.4763 145.669 22.3915C145.495 21.1164 145.453 19.8354 145.546 18.5543C145.893 13.8044 147.72 9.69667 151.07 6.2913C153.631 3.6894 156.72 1.96251 160.276 1.08589C161.167 0.866467 162.078 0.716958 162.992 0.626069C163.89 0.536793 164.781 0.519046 165.681 0.559919C169.712 0.742772 173.375 2.03458 176.606 4.44179C177.355 5.00003 178.036 5.61904 178.701 6.27355C180.348 7.89341 182.221 9.16478 184.332 10.1135C185.837 10.79 187.399 11.2746 189.028 11.5537C190.045 11.728 191.07 11.8156 192.1 11.8339C192.715 11.8447 193.609 11.8 194.408 11.722C193.8 12.0377 192.387 12.5223 191.525 12.7181C189.941 13.0778 188.319 13.2338 186.686 13.1193C184.365 12.9563 182.222 12.3491 180.246 11.3155C179.268 10.8035 178.333 10.1871 177.441 9.46004C177.026 9.12176 176.638 8.75498 176.255 8.38066C174.643 6.80167 172.771 5.60452 170.657 4.79943C169.472 4.34875 168.255 4.04381 166.996 3.88355C166.153 3.77599 165.309 3.72651 164.46 3.75125C159.861 3.8857 155.681 5.89171 152.747 9.20619C150.939 11.2482 149.733 13.607 149.122 16.2584C148.826 17.5384 148.702 18.8399 148.726 20.1537C148.856 27.2146 153.674 33.3073 160.386 35.2402C161.42 35.5376 162.472 35.7307 163.545 35.8167C164.54 35.8963 165.535 35.8974 166.527 35.7931C169.848 35.444 172.801 34.1996 175.355 32.0586C175.705 31.7649 176.031 31.4503 176.36 31.1341C177.254 30.2768 178.293 29.6998 179.508 29.4384C182.838 28.722 186.122 30.6673 187.09 33.8505C187.802 36.1921 187.097 38.5606 185.566 40.1622C185.028 40.7247 184.018 41.5417 182.558 41.9208C181.69 42.1462 180.661 42.2268 179.48 41.9794C178.376 41.7482 177.321 41.1867 176.388 40.309C175.823 39.7777 175.146 39.1258 173.547 38.6112L173.548 38.6117Z" fill="white"/>
<path d="M64.3237 28.1553C64.1464 28.1553 63.8889 28.1382 63.6935 28.1055C61.7514 27.778 60.6014 26.2335 60.4264 24.7438C60.4003 24.5216 60.3839 24.297 60.3839 24.0732C60.3807 22.1915 60.3839 20.3105 60.3798 18.4287C60.3798 18.2376 60.3709 18.0416 60.3284 17.857C60.1232 16.9602 59.3532 16.3362 58.4345 16.3232C57.707 16.3134 56.9787 16.3207 56.2512 16.3207C55.6414 16.3207 55.0186 16.3126 54.4088 16.3232C53.5563 16.3387 52.8149 16.9039 52.5632 17.7165C52.4961 17.9321 52.4692 18.1535 52.47 18.3805C52.4724 18.9792 52.47 19.5779 52.47 20.1765C52.47 22.6995 52.47 25.2224 52.47 27.7453C52.47 27.8629 52.47 28.0165 52.47 28.1561C51.8569 28.1561 51.3788 28.0369 50.9831 27.8752C49.7579 27.3745 48.8269 26.2637 48.5841 24.952C48.531 24.6654 48.5179 24.3795 48.5179 24.0904C48.5179 22.2192 48.5179 20.3489 48.5163 18.4777C48.5163 18.3177 48.504 18.1576 48.4852 17.9991C48.3855 17.184 47.685 16.3567 46.6052 16.3215C46.5627 16.3199 46.5194 16.3207 46.4769 16.3207C45.214 16.3207 43.9234 16.3313 42.6605 16.3281C42.3777 16.3281 42.1022 16.3632 41.8456 16.4775C41.0846 16.8189 40.6636 17.4029 40.6178 18.2433C40.6113 18.3609 40.6154 18.4785 40.6154 18.5962C40.6154 20.4453 40.6154 22.2952 40.6154 24.1443C40.6154 24.7511 40.5083 25.3375 40.241 25.8848C39.6354 27.1238 38.6496 27.849 37.2944 28.0989C37.0998 28.1349 36.8783 28.1553 36.6633 28.1561C36.6633 28.0883 36.6633 27.9862 36.6633 27.925C36.6633 25.3376 36.6396 22.7501 36.669 20.1635C36.7124 16.3763 39.4032 13.2743 42.9458 12.5572C45.7224 11.9953 48.155 12.7401 50.1976 14.715C50.2973 14.8114 50.3938 14.911 50.5009 15.0188C50.6039 14.9739 50.6611 14.8816 50.7322 14.8081C51.8275 13.6835 53.1337 12.9272 54.6688 12.58C58.8873 11.6277 62.8917 14.1629 64.0205 18.111C64.2183 18.8044 64.3188 19.5125 64.3205 20.2313C64.3262 22.786 64.3229 25.3416 64.3229 27.8964C64.3229 27.9601 64.3229 28.0614 64.3229 28.1561L64.3237 28.1553Z" fill="white"/>
<path d="M4.49158 28.1551C4.48668 27.9828 4.51447 27.6659 4.55534 27.4495C4.90682 25.5783 6.40672 24.4463 7.86003 24.2585C8.07174 24.2315 8.2859 24.2135 8.49924 24.2111C9.15233 24.2046 9.80542 24.2176 10.4577 24.2054C11.0838 24.1939 11.5922 23.9269 11.978 23.4352C12.2437 23.0971 12.3827 22.7091 12.3843 22.2771C12.3859 21.8172 12.3859 21.3574 12.3859 20.8984C12.3859 20.0539 12.3851 19.2094 12.3859 18.3649C12.3859 18.1174 12.3614 17.8748 12.278 17.6396C12.0017 16.8621 11.2743 16.3328 10.4414 16.3214C9.75638 16.3116 9.0714 16.323 8.38643 16.3173C6.63885 16.3026 5.05885 15.7741 3.67092 14.7148C1.98792 13.4301 0.955569 11.7329 0.637605 9.64287C-0.0293834 5.26432 2.91402 1.52365 6.79661 0.715072C7.31157 0.608078 7.83061 0.541922 8.35619 0.541105C9.59781 0.537838 10.8394 0.53947 12.0802 0.53947C12.1644 0.53947 12.2813 0.53947 12.3818 0.53947C12.3818 0.613794 12.3802 0.679946 12.3777 0.739568C12.341 1.61348 12.0393 2.38939 11.4778 3.05666C10.68 4.0049 9.64684 4.47126 8.41095 4.48841C7.79056 4.49658 7.16934 4.48597 6.54894 4.49332C6.35767 4.49577 6.1615 4.5072 5.97759 4.55376C5.11116 4.77428 4.52673 5.51179 4.48831 6.42083C4.48013 6.61276 4.48585 6.80551 4.48585 6.99826C4.48585 8.08861 4.48667 9.17896 4.48504 10.2693C4.48504 10.4956 4.50547 10.7177 4.56514 10.935C4.75641 11.6308 5.4046 12.3553 6.47293 12.3773C6.78354 12.3839 7.09334 12.3773 7.40395 12.379C7.86413 12.3814 8.32432 12.3732 8.7845 12.3896C12.3516 12.5162 15.434 15.1199 16.1704 18.645C17.032 22.772 14.507 26.819 10.4561 27.8938C9.78989 28.0702 9.11147 28.1511 8.42404 28.1535C7.22902 28.1535 4.63871 28.1535 4.49076 28.1535L4.49158 28.1551Z" fill="white"/>
<path d="M30.1579 28.1555C30.1579 28.1555 27.4532 28.1555 26.2377 28.1555C24.048 28.1383 22.1606 27.3698 20.6117 25.8204C19.3782 24.5871 18.6377 23.0958 18.3966 21.3659C17.8121 17.1842 20.5667 13.3953 24.5556 12.5549C28.9989 11.6197 33.0302 14.4791 33.9351 18.5873C34.0593 19.1533 34.1108 19.7275 34.1108 20.3058C34.1108 22.8066 34.1141 27.7226 34.1141 28.1547C33.8991 28.1579 33.6686 28.1367 33.4708 28.1032C31.5786 27.7765 30.4211 26.2851 30.2176 24.8232C30.1857 24.5912 30.1669 24.3552 30.1669 24.1216C30.1629 22.23 30.1661 20.3376 30.1628 18.446C30.1628 18.2656 30.1555 18.081 30.1187 17.9054C29.9283 16.9792 29.1468 16.3307 28.2011 16.3225C27.1524 16.3135 26.1037 16.3201 25.055 16.3201C24.7877 16.3201 24.5196 16.3176 24.2523 16.3209C23.1382 16.3356 22.2759 17.1858 22.2677 18.295C22.2587 19.6099 22.2644 20.924 22.2661 22.239C22.2677 23.3563 23.1962 24.2204 24.2539 24.2106C24.907 24.2049 25.5593 24.2065 26.2124 24.2106C28.0777 24.2229 29.6446 25.4717 30.0648 27.2848C30.1269 27.5535 30.1588 27.8394 30.1588 28.1555H30.1579Z" fill="white"/>
<path d="M82.133 28.1561C82.1118 28.1561 75.7222 28.1561 75.7222 28.1561C75.0699 28.1553 74.416 28.1627 73.7646 28.1316C72.2728 28.0614 70.9127 27.5828 69.6997 26.7178C67.8761 25.4176 66.7628 23.6542 66.4318 21.4417C65.7983 17.2036 68.5791 13.4025 72.5696 12.558C77.1151 11.5959 81.1293 14.5909 81.9687 18.6411C82.0578 19.0715 82.106 19.506 82.1346 19.943C82.1412 20.0369 82.1387 20.1635 82.1371 20.2664H74.2346C74.2403 19.212 74.5869 18.45 75.1108 17.7966C75.5269 17.2779 76.1432 16.7585 76.9965 16.4873C76.7579 16.3714 76.4358 16.3199 76.1767 16.3199C75.5236 16.3199 74.8713 16.3199 74.2182 16.3199C73.5651 16.3199 72.912 16.3109 72.2598 16.3224C71.5446 16.3354 70.9863 16.6499 70.5947 17.2485C70.3651 17.5997 70.285 17.9934 70.285 18.4083C70.2866 19.4129 70.285 20.4183 70.285 21.4229C70.285 21.69 70.2792 21.9579 70.2866 22.2249C70.3062 22.8971 70.5743 23.4452 71.1236 23.8421C71.4726 24.0945 71.8658 24.2113 72.2974 24.2096C73.2496 24.2064 74.2027 24.2096 75.155 24.2096C76.1718 24.2096 77.1886 24.2047 78.2055 24.2113C79.9767 24.2227 81.5102 25.389 81.99 27.0854C82.0831 27.4145 82.1412 27.7935 82.133 28.1553V28.1561Z" fill="white"/>
<path d="M116.454 28.1561C116.43 28.1561 110.044 28.1561 110.044 28.1561C109.391 28.1553 108.737 28.1627 108.086 28.1316C106.594 28.0614 105.234 27.5828 104.021 26.7178C102.197 25.4176 101.084 23.6542 100.753 21.4417C100.12 17.2036 102.9 13.4025 106.891 12.558C111.436 11.5959 115.451 14.5909 116.29 18.6411C116.379 19.0715 116.427 19.506 116.456 19.943C116.462 20.0369 116.46 20.1635 116.458 20.2664H108.556C108.562 19.212 108.908 18.45 109.432 17.7966C109.848 17.2779 110.464 16.7585 111.318 16.4873C111.079 16.3714 110.757 16.3199 110.498 16.3199C109.845 16.3199 109.193 16.3199 108.54 16.3199C107.886 16.3199 107.233 16.3109 106.581 16.3224C105.866 16.3354 105.308 16.6499 104.916 17.2485C104.686 17.5997 104.606 17.9934 104.606 18.4083C104.608 19.4129 104.606 20.4183 104.606 21.4229C104.606 21.69 104.601 21.9579 104.608 22.2249C104.628 22.8971 104.896 23.4452 105.445 23.8421C105.794 24.0945 106.187 24.2113 106.619 24.2096C107.571 24.2064 108.524 24.2096 109.476 24.2096C110.493 24.2096 111.51 24.2047 112.527 24.2113C114.298 24.2227 115.831 25.389 116.311 27.0854C116.404 27.4145 116.462 27.7935 116.454 28.1553V28.1561Z" fill="white"/>
<path d="M82.2694 12.3688C82.5391 12.3688 84.9651 12.3672 86.1103 12.3696C86.3481 12.3696 86.5803 12.3459 86.8067 12.2741C87.6061 12.0217 88.1562 11.2997 88.1938 10.4544C88.1979 10.358 88.1963 10.2616 88.1963 10.1661C88.1963 9.05448 88.1963 7.9429 88.1963 6.83049C88.1963 6.71533 88.1963 6.44336 88.1963 6.44336C88.4047 6.44744 88.5714 6.46133 88.7382 6.48501C90.5577 6.74229 91.975 8.22385 92.1279 10.064C92.1344 10.1432 92.1336 10.2224 92.1336 10.3008C92.1352 10.9689 92.3755 11.5431 92.9453 11.9784C93.2861 12.2389 93.7104 12.3615 94.1403 12.3664C94.6217 12.3713 95.0893 12.448 95.5331 12.631C96.9194 13.2011 97.745 14.2318 98.0172 15.7019C98.0515 15.8873 98.0711 16.1111 98.0679 16.3071C97.9281 16.3071 95.4383 16.3047 94.3144 16.3071C94.1754 16.3071 94.0365 16.3161 93.8984 16.3276C93.1169 16.3896 92.2023 17.0471 92.1385 18.2265C92.1352 18.2902 92.1361 18.3547 92.1361 18.4192C92.1361 19.6484 92.1369 20.8776 92.1352 22.1076C92.1352 22.3339 92.1565 22.556 92.2194 22.7733C92.4777 23.6611 93.2894 24.1895 94.0414 24.1928C94.6945 24.1952 95.3476 24.1936 95.9999 24.1961C96.4625 24.1977 96.9202 24.2491 97.3559 24.4109C98.864 24.9695 99.7427 26.0501 100.006 27.6304C100.032 27.7856 100.059 28.154 100.059 28.154H95.8748C92.0805 28.0478 89.151 25.346 88.3932 22.0333C88.2616 21.4583 88.1922 20.876 88.1946 20.2855C88.1971 19.6231 88.2036 18.9599 88.1922 18.2975C88.1791 17.5723 87.8644 17.0038 87.2513 16.6085C86.9015 16.3831 86.5075 16.3039 86.0948 16.3071C85.7359 16.3096 85.3771 16.2516 85.0379 16.1332C84.2671 15.8636 83.6581 15.4577 83.2004 14.9252C82.2465 13.8136 82.2792 12.6196 82.2686 12.3704L82.2694 12.3688Z" fill="white"/>
<path d="M135.04 20.2765C135.012 24.6853 131.461 28.1679 127.12 28.154C122.624 28.1401 119.223 24.4623 119.239 20.2398C119.256 15.9372 122.774 12.3623 127.173 12.377C131.388 12.3909 135.021 15.7853 135.041 20.2765H135.04ZM127.13 24.2051V24.2026C127.814 24.2026 128.499 24.2083 129.183 24.201C130.201 24.1912 131.078 23.3173 131.082 22.2833C131.087 20.9373 131.083 19.5921 131.082 18.2461C131.082 17.4522 130.528 16.6518 129.686 16.4133C129.472 16.3529 129.244 16.3219 129.023 16.3202C127.761 16.3112 126.499 16.3162 125.237 16.3162C125.195 16.3162 125.151 16.3161 125.109 16.3186C124.062 16.3741 123.463 17.0839 123.274 17.7258C123.207 17.9529 123.183 18.1848 123.184 18.4217C123.186 19.6501 123.185 20.8785 123.185 22.106C123.185 22.1697 123.184 22.2343 123.186 22.298C123.223 23.1074 123.73 23.804 124.481 24.0858C124.726 24.1773 124.978 24.2042 125.236 24.2034C125.868 24.2026 126.499 24.2034 127.13 24.2034V24.2051Z" fill="white"/>
<path d="M0.542969 42.3814L1.37658 42.306C1.41635 42.6522 1.50806 42.9368 1.65254 43.1581C1.79702 43.3803 2.02105 43.5594 2.32462 43.6965C2.6282 43.8335 2.96993 43.9016 3.3498 43.9016C3.68665 43.9016 3.98454 43.8497 4.24266 43.7459C4.50077 43.6421 4.69313 43.4995 4.81895 43.3187C4.94476 43.1379 5.00808 42.94 5.00808 42.726C5.00808 42.512 4.9472 42.319 4.82626 42.1569C4.7045 41.9947 4.50402 41.8585 4.2248 41.7482C4.04542 41.6761 3.6493 41.5634 3.03567 41.4102C2.42203 41.2577 1.99265 41.1134 1.74671 40.978C1.42772 40.8045 1.18989 40.5897 1.03405 40.3335C0.877389 40.0765 0.799456 39.7895 0.799456 39.4717C0.799456 39.1222 0.895238 38.7955 1.0868 38.4915C1.27836 38.1874 1.55758 37.9572 1.92528 37.7999C2.29297 37.6426 2.70124 37.564 3.15092 37.564C3.64605 37.564 4.08275 37.6467 4.461 37.8121C4.83924 37.9775 5.12983 38.2207 5.33356 38.5417C5.5373 38.8628 5.64607 39.2268 5.66149 39.633L4.81409 39.6995C4.76864 39.2617 4.6144 38.9309 4.35141 38.7079C4.08842 38.4842 3.70045 38.3723 3.18746 38.3723C2.67447 38.3723 2.26375 38.4736 2.01862 38.6771C1.7743 38.8798 1.65173 39.1255 1.65173 39.4117C1.65173 39.6606 1.7386 39.8649 1.91149 40.0254C2.08113 40.1859 2.52593 40.3505 3.24428 40.5191C3.96262 40.6878 4.45531 40.8345 4.72236 40.961C5.11116 41.1467 5.39851 41.3826 5.58357 41.6672C5.76864 41.9517 5.86116 42.2801 5.86116 42.6522C5.86116 43.0244 5.7597 43.3681 5.55597 43.694C5.35223 44.02 5.06002 44.2737 4.67934 44.4545C4.29784 44.6353 3.86928 44.7261 3.39201 44.7261C2.7873 44.7261 2.28079 44.6345 1.87251 44.4521C1.46423 44.2697 1.14362 43.9948 0.911479 43.6276C0.679336 43.2603 0.556769 42.846 0.544594 42.3831L0.542969 42.3814Z" fill="#FDFDFD"/>
<path d="M6.96191 44.6061V39.59H7.69568V40.2937C7.84747 40.048 8.04958 39.8502 8.3012 39.701C8.55283 39.5518 8.84015 39.4764 9.16239 39.4764C9.52035 39.4764 9.81419 39.5535 10.0439 39.7075C10.2728 39.8616 10.4351 40.0772 10.5293 40.3545C10.9116 39.7691 11.41 39.4756 12.0236 39.4756C12.5033 39.4756 12.8726 39.6135 13.1308 39.8891C13.3889 40.1648 13.5179 40.5888 13.5179 41.162V44.6052H12.7022V41.4458C12.7022 41.1061 12.6754 40.8612 12.6226 40.7112C12.5699 40.562 12.4733 40.4412 12.3337 40.3496C12.1941 40.258 12.0301 40.2126 11.8418 40.2126C11.5017 40.2126 11.2192 40.3302 10.9944 40.5645C10.7695 40.7988 10.6575 41.175 10.6575 41.6906V44.6044H9.83773V41.3452C9.83773 40.9674 9.77117 40.6837 9.63724 40.4948C9.50331 40.3058 9.28496 40.211 8.98139 40.211C8.75087 40.211 8.5374 40.2742 8.34097 40.3999C8.14536 40.5256 8.00331 40.7104 7.91484 40.9528C7.82636 41.1952 7.78252 41.5447 7.78252 42.0011V44.6036H6.96273L6.96191 44.6061Z" fill="#FDFDFD"/>
<path d="M17.8911 43.9875C17.5876 44.255 17.2953 44.4439 17.0145 44.5542C16.7337 44.6644 16.4317 44.7196 16.1103 44.7196C15.5786 44.7196 15.1703 44.585 14.8846 44.3158C14.5989 44.0467 14.4561 43.7029 14.4561 43.2837C14.4561 43.0381 14.5096 42.8135 14.6176 42.6108C14.7255 42.4081 14.8668 42.2452 15.0413 42.1219C15.2158 41.9995 15.4122 41.9063 15.6314 41.843C15.7921 41.7993 16.0356 41.7563 16.3603 41.7158C17.0226 41.6339 17.5096 41.5366 17.8229 41.4231C17.8262 41.3063 17.8278 41.2325 17.8278 41.2009C17.8278 40.8547 17.7507 40.6107 17.5957 40.4688C17.3863 40.2767 17.0746 40.181 16.6614 40.181C16.2759 40.181 15.991 40.2507 15.8075 40.391C15.6241 40.5313 15.4877 40.7793 15.4001 41.1353L14.5981 41.0218C14.6712 40.6658 14.7913 40.3788 14.9577 40.1599C15.1249 39.941 15.366 39.7724 15.6817 39.6548C15.9975 39.5365 16.3635 39.4781 16.7799 39.4781C17.1963 39.4781 17.5283 39.5284 17.7864 39.6289C18.0445 39.7294 18.2345 39.8567 18.3562 40.0091C18.478 40.1616 18.5624 40.3545 18.6111 40.588C18.6387 40.7331 18.6525 40.9942 18.6525 41.372V42.5054C18.6525 43.2959 18.6695 43.7953 18.7053 44.0053C18.7402 44.2145 18.8092 44.4155 18.9122 44.6077H18.0559C17.9707 44.4318 17.9163 44.225 17.8919 43.9891L17.8911 43.9875ZM17.8229 42.0887C17.5251 42.2144 17.0786 42.3214 16.4837 42.4098C16.1468 42.46 15.9082 42.5168 15.7686 42.58C15.629 42.6432 15.521 42.7349 15.4455 42.8565C15.3692 42.9781 15.3319 43.1127 15.3319 43.2602C15.3319 43.4872 15.4147 43.6761 15.5803 43.8269C15.7458 43.9777 15.9877 44.054 16.3067 44.054C16.6257 44.054 16.9033 43.9826 17.1493 43.8391C17.3952 43.6956 17.5762 43.5002 17.6915 43.2513C17.7791 43.0592 17.8238 42.7762 17.8238 42.4008V42.0895L17.8229 42.0887Z" fill="#FDFDFD"/>
<path d="M19.9141 44.606V39.5899H20.6519V40.3504C20.8402 39.9945 21.0139 39.7602 21.1738 39.6467C21.3329 39.5332 21.509 39.4764 21.6998 39.4764C21.9758 39.4764 22.2574 39.5681 22.5423 39.7505L22.2599 40.5393C22.0594 40.4169 21.8589 40.3553 21.6584 40.3553C21.479 40.3553 21.3183 40.4112 21.1754 40.5231C21.0326 40.635 20.9311 40.7899 20.8702 40.9885C20.7793 41.2909 20.7339 41.6217 20.7339 41.98V44.606H19.9141Z" fill="#FDFDFD"/>
<path d="M24.8207 43.8456L24.9392 44.5964C24.7087 44.6466 24.5017 44.6718 24.3198 44.6718C24.022 44.6718 23.7914 44.6231 23.6275 44.525C23.4635 44.4277 23.3483 44.2988 23.2809 44.1399C23.2143 43.981 23.181 43.6462 23.181 43.1362V40.2508H22.5796V39.5892H23.181V38.3471L23.9968 37.8372V39.5892H24.8215V40.2508H23.9968V43.184C23.9968 43.4265 24.0114 43.5821 24.0398 43.6518C24.0682 43.7208 24.1161 43.7759 24.1811 43.8172C24.246 43.8578 24.3401 43.8789 24.4611 43.8789C24.552 43.8789 24.6721 43.8675 24.8207 43.8456Z" fill="#FDFDFD"/>
<path d="M27.585 44.6061L30.1499 37.6823H31.102L33.8358 44.6061H32.8293L32.0501 42.5087H29.2571L28.5233 44.6061H27.585ZM29.5119 41.7628H31.7757L31.0785 39.8454C30.8658 39.2633 30.7075 38.7841 30.6045 38.4096C30.5192 38.8538 30.3991 39.2941 30.2449 39.7319L29.5111 41.7628H29.5119Z" fill="#FDFDFD"/>
<path d="M34.4375 46.5283V39.5899H35.1843V40.2418C35.3604 39.9864 35.5592 39.7959 35.7808 39.6678C36.0024 39.5405 36.2711 39.4764 36.5869 39.4764C37 39.4764 37.3644 39.5867 37.6802 39.8072C37.9959 40.0278 38.2346 40.3383 38.3953 40.7404C38.556 41.1417 38.6364 41.582 38.6364 42.0603C38.6364 42.5735 38.5479 43.0356 38.3701 43.4467C38.1924 43.8577 37.9343 44.1723 37.5958 44.3912C37.2573 44.6101 36.901 44.7196 36.5276 44.7196C36.2541 44.7196 36.0089 44.6596 35.7922 44.5404C35.5747 44.4204 35.3969 44.2696 35.2573 44.0872V46.5291H34.4375V46.5283ZM35.1802 42.1268C35.1802 42.7721 35.306 43.2497 35.5584 43.5578C35.8109 43.8666 36.1161 44.0207 36.474 44.0207C36.832 44.0207 37.1502 43.861 37.4099 43.5415C37.6696 43.2221 37.7995 42.7267 37.7995 42.0562C37.7995 41.3858 37.6729 40.9382 37.4188 40.6204C37.1656 40.3026 36.862 40.1437 36.5097 40.1437C36.1575 40.1437 35.8515 40.3131 35.5828 40.6512C35.3141 40.9901 35.1794 41.4814 35.1794 42.1276L35.1802 42.1268Z" fill="#FDFDFD"/>
<path d="M39.626 46.5283V39.5899H40.3727V40.2418C40.5489 39.9864 40.7477 39.7959 40.9693 39.6678C41.1909 39.5405 41.4596 39.4764 41.7753 39.4764C42.1885 39.4764 42.5529 39.5867 42.8687 39.8072C43.1844 40.0278 43.4231 40.3383 43.5838 40.7404C43.7445 41.1417 43.8248 41.582 43.8248 42.0603C43.8248 42.5735 43.7364 43.0356 43.5586 43.4467C43.3809 43.8577 43.1227 44.1723 42.7843 44.3912C42.4458 44.6101 42.0895 44.7196 41.7161 44.7196C41.4425 44.7196 41.1974 44.6596 40.9807 44.5404C40.7631 44.4204 40.5854 44.2696 40.4458 44.0872V46.5291H39.626V46.5283ZM40.3687 42.1268C40.3687 42.7721 40.4945 43.2497 40.7469 43.5578C40.9994 43.8666 41.3046 44.0207 41.6625 44.0207C42.0205 44.0207 42.3387 43.861 42.5984 43.5415C42.8581 43.2221 42.988 42.7267 42.988 42.0562C42.988 41.3858 42.8614 40.9382 42.6073 40.6204C42.3541 40.3026 42.0505 40.1437 41.6982 40.1437C41.3459 40.1437 41.0399 40.3131 40.7713 40.6512C40.5026 40.9901 40.3679 41.4814 40.3679 42.1276L40.3687 42.1268Z" fill="#FDFDFD"/>
<path d="M44.7969 44.6061V37.6823H45.6167V44.6061H44.7969Z" fill="#FDFDFD"/>
<path d="M46.8921 38.6601V37.6823H47.7119V38.6601H46.8921ZM46.8921 44.6061V39.59H47.7119V44.6061H46.8921Z" fill="#FDFDFD"/>
<path d="M52.1179 42.7689L52.9239 42.8775C52.8355 43.454 52.6106 43.9047 52.2478 44.2307C51.885 44.5566 51.4394 44.7196 50.9109 44.7196C50.2486 44.7196 49.717 44.495 49.3144 44.0466C48.9118 43.5983 48.7104 42.9546 48.7104 42.1171C48.7104 41.5755 48.7973 41.1012 48.9702 40.695C49.1431 40.2888 49.4069 39.984 49.7608 39.7813C50.1147 39.5786 50.4994 39.4764 50.9158 39.4764C51.441 39.4764 51.8712 39.6143 52.2048 39.8899C52.5392 40.1656 52.7527 40.5564 52.8468 41.0639L52.0498 41.1912C51.9735 40.8539 51.8395 40.6009 51.6463 40.4307C51.4532 40.2604 51.2202 40.1753 50.9467 40.1753C50.5335 40.1753 50.1983 40.3285 49.9402 40.6358C49.6821 40.9431 49.553 41.4287 49.553 42.0927C49.553 42.7567 49.6772 43.2561 49.9264 43.5618C50.1755 43.8675 50.5002 44.0199 50.9012 44.0199C51.2234 44.0199 51.4921 43.9177 51.7072 43.7126C51.9231 43.5083 52.0595 43.1929 52.1171 42.7681L52.1179 42.7689Z" fill="#FDFDFD"/>
<path d="M56.7827 43.9875C56.4792 44.255 56.1869 44.4439 55.9061 44.5542C55.6253 44.6644 55.3233 44.7196 55.0019 44.7196C54.4702 44.7196 54.0619 44.585 53.7762 44.3158C53.4905 44.0467 53.3477 43.7029 53.3477 43.2837C53.3477 43.0381 53.4012 42.8135 53.5092 42.6108C53.6171 42.4081 53.7584 42.2452 53.9329 42.1219C54.1074 41.9995 54.3038 41.9063 54.523 41.843C54.6837 41.7993 54.9272 41.7563 55.2519 41.7158C55.9142 41.6339 56.4012 41.5366 56.7145 41.4231C56.7178 41.3063 56.7194 41.2325 56.7194 41.2009C56.7194 40.8547 56.6423 40.6107 56.4873 40.4688C56.2779 40.2767 55.9662 40.181 55.553 40.181C55.1675 40.181 54.8826 40.2507 54.6991 40.391C54.5157 40.5313 54.3793 40.7793 54.2916 41.1353L53.4897 41.0218C53.5628 40.6658 53.6829 40.3788 53.8493 40.1599C54.0165 39.941 54.2575 39.7724 54.5733 39.6548C54.889 39.5365 55.2551 39.4781 55.6715 39.4781C56.0879 39.4781 56.4199 39.5284 56.678 39.6289C56.9361 39.7294 57.1261 39.8567 57.2478 40.0091C57.3696 40.1616 57.454 40.3545 57.5027 40.588C57.5303 40.7331 57.5441 40.9942 57.5441 41.372V42.5054C57.5441 43.2959 57.5611 43.7953 57.5968 44.0053C57.6317 44.2145 57.7007 44.4155 57.8038 44.6077H56.9475C56.8623 44.4318 56.8079 44.225 56.7835 43.9891L56.7827 43.9875ZM56.7145 42.0887C56.4167 42.2144 55.9702 42.3214 55.3753 42.4098C55.0384 42.46 54.7998 42.5168 54.6602 42.58C54.5205 42.6432 54.4126 42.7349 54.3371 42.8565C54.2608 42.9781 54.2235 43.1127 54.2235 43.2602C54.2235 43.4872 54.3063 43.6761 54.4718 43.8269C54.6374 43.9777 54.8793 44.054 55.1983 44.054C55.5173 44.054 55.7949 43.9826 56.0408 43.8391C56.2868 43.6956 56.4678 43.5002 56.583 43.2513C56.6707 43.0592 56.7154 42.7762 56.7154 42.4008V42.0895L56.7145 42.0887Z" fill="#FDFDFD"/>
<path d="M60.6048 43.8456L60.7233 44.5964C60.4928 44.6466 60.2858 44.6718 60.104 44.6718C59.8061 44.6718 59.5756 44.6231 59.4117 44.525C59.2477 44.4277 59.1324 44.2988 59.0651 44.1399C58.9985 43.981 58.9652 43.6462 58.9652 43.1362V40.2508H58.3638V39.5892H58.9652V38.3471L59.781 37.8372V39.5892H60.6056V40.2508H59.781V43.184C59.781 43.4265 59.7956 43.5821 59.824 43.6518C59.8524 43.7208 59.9003 43.7759 59.9652 43.8172C60.0302 43.8578 60.1243 43.8789 60.2453 43.8789C60.3362 43.8789 60.4563 43.8675 60.6048 43.8456Z" fill="#FDFDFD"/>
<path d="M61.4116 38.6601V37.6823H62.2314V38.6601H61.4116ZM61.4116 44.6061V39.59H62.2314V44.6061H61.4116Z" fill="#FDFDFD"/>
<path d="M63.1746 42.0985C63.1746 41.1693 63.4238 40.4818 63.9214 40.0343C64.3378 39.663 64.8443 39.4773 65.4433 39.4773C66.1081 39.4773 66.6519 39.7035 67.074 40.1551C67.4961 40.6067 67.7071 41.2309 67.7071 42.0279C67.7071 42.6733 67.6138 43.1808 67.4271 43.5513C67.2404 43.921 66.9685 44.2088 66.6113 44.4131C66.2542 44.6174 65.8646 44.7204 65.4425 44.7204C64.7655 44.7204 64.2177 44.495 63.8005 44.0451C63.3824 43.5951 63.1738 42.9465 63.1738 42.0993L63.1746 42.0985ZM64.0172 42.0985C64.0172 42.7406 64.1519 43.2221 64.423 43.5416C64.6933 43.861 65.0334 44.0207 65.4433 44.0207C65.8532 44.0207 66.1893 43.8602 66.4595 43.5392C66.7298 43.2181 66.8654 42.7284 66.8654 42.0701C66.8654 41.4499 66.7298 40.9796 66.4579 40.6602C66.186 40.3407 65.8483 40.181 65.4441 40.181C65.0399 40.181 64.6941 40.3399 64.4238 40.6577C64.1535 40.9756 64.018 41.4555 64.018 42.0985H64.0172Z" fill="#FDFDFD"/>
<path d="M68.668 44.606V39.5899H69.4058V40.3034C69.7613 39.7521 70.2743 39.4764 70.9456 39.4764C71.237 39.4764 71.5048 39.5308 71.75 39.6394C71.9943 39.748 72.1777 39.8907 72.2987 40.0667C72.4204 40.2434 72.5048 40.4526 72.5535 40.695C72.5836 40.8523 72.599 41.1279 72.599 41.5212V44.6052H71.7792V41.5544C71.7792 41.2082 71.7475 40.9488 71.6834 40.7777C71.6193 40.6058 71.5064 40.4688 71.3441 40.3667C71.1818 40.2645 70.991 40.2134 70.7727 40.2134C70.4236 40.2134 70.1217 40.3285 69.8685 40.558C69.6152 40.7874 69.4878 41.2236 69.4878 41.8665V44.606H68.668Z" fill="#FDFDFD"/>
<path d="M77.0146 43.9875C76.7111 44.255 76.4189 44.4439 76.138 44.5542C75.8572 44.6644 75.5552 44.7196 75.2338 44.7196C74.7021 44.7196 74.2939 44.585 74.0082 44.3158C73.7224 44.0467 73.5796 43.7029 73.5796 43.2837C73.5796 43.0381 73.6332 42.8135 73.7411 42.6108C73.8491 42.4081 73.9903 42.2452 74.1648 42.1219C74.3393 41.9995 74.5358 41.9063 74.7549 41.843C74.9156 41.7993 75.1591 41.7563 75.4838 41.7158C76.1462 41.6339 76.6332 41.5366 76.9465 41.4231C76.9497 41.3063 76.9514 41.2325 76.9514 41.2009C76.9514 40.8547 76.8742 40.6107 76.7192 40.4688C76.5098 40.2767 76.1981 40.181 75.7849 40.181C75.3994 40.181 75.1145 40.2507 74.931 40.391C74.7476 40.5313 74.6112 40.7793 74.5236 41.1353L73.7216 41.0218C73.7947 40.6658 73.9148 40.3788 74.0812 40.1599C74.2484 39.941 74.4895 39.7724 74.8052 39.6548C75.121 39.5365 75.4871 39.4781 75.9034 39.4781C76.3198 39.4781 76.6518 39.5284 76.91 39.6289C77.1681 39.7294 77.358 39.8567 77.4798 40.0091C77.6015 40.1616 77.6859 40.3545 77.7346 40.588C77.7622 40.7331 77.776 40.9942 77.776 41.372V42.5054C77.776 43.2959 77.7931 43.7953 77.8288 44.0053C77.8637 44.2145 77.9327 44.4155 78.0358 44.6077H77.1794C77.0942 44.4318 77.0398 44.225 77.0155 43.9891L77.0146 43.9875ZM76.9465 42.0887C76.6486 42.2144 76.2022 42.3214 75.6072 42.4098C75.2703 42.46 75.0317 42.5168 74.8921 42.58C74.7525 42.6432 74.6445 42.7349 74.569 42.8565C74.4927 42.9781 74.4554 43.1127 74.4554 43.2602C74.4554 43.4872 74.5382 43.6761 74.7038 43.8269C74.8694 43.9777 75.1113 44.054 75.4302 44.054C75.7492 44.054 76.0268 43.9826 76.2728 43.8391C76.5187 43.6956 76.6997 43.5002 76.815 43.2513C76.9026 43.0592 76.9473 42.7762 76.9473 42.4008V42.0895L76.9465 42.0887Z" fill="#FDFDFD"/>
<path d="M79.0273 44.6061V37.6823H79.8472V44.6061H79.0273Z" fill="#FDFDFD"/>
<path d="M83.7891 44.6061V37.6823H85.1194L86.7006 42.5849C86.8467 43.0414 86.953 43.3835 87.0196 43.6097C87.0951 43.3575 87.2136 42.9878 87.3751 42.4998L88.9741 37.6823H90.1633V44.6061H89.311V38.8109L87.3702 44.6061H86.5731L84.6413 38.712V44.6061H83.7891Z" fill="#FDFDFD"/>
<path d="M94.7957 42.9911L95.6431 43.0997C95.5091 43.6129 95.2616 44.011 94.9004 44.2948C94.5392 44.5785 94.0773 44.7196 93.5156 44.7196C92.8078 44.7196 92.247 44.4934 91.8322 44.0418C91.4174 43.5902 91.2104 42.9562 91.2104 42.1406C91.2104 41.325 91.4199 40.6415 91.8395 40.1762C92.2583 39.71 92.8022 39.4773 93.4702 39.4773C94.1382 39.4773 94.6455 39.7059 95.0554 40.1624C95.4653 40.6188 95.6707 41.2609 95.6707 42.0895C95.6707 42.1398 95.6691 42.2152 95.6658 42.3165H92.0578C92.0879 42.8678 92.2389 43.2894 92.5092 43.5821C92.7794 43.8748 93.1163 44.0215 93.5205 44.0215C93.8208 44.0215 94.0781 43.9397 94.2908 43.7759C94.5035 43.6121 94.6723 43.3511 94.7965 42.9919L94.7957 42.9911ZM92.1033 41.6169H94.8046C94.7681 41.1953 94.665 40.8783 94.4945 40.6675C94.2332 40.3399 93.8947 40.1762 93.4783 40.1762C93.1017 40.1762 92.7851 40.3067 92.5286 40.5678C92.2721 40.8288 92.1301 41.1791 92.1025 41.616L92.1033 41.6169Z" fill="#FDFDFD"/>
<path d="M98.4626 43.8456L98.5811 44.5964C98.3506 44.6466 98.1436 44.6718 97.9618 44.6718C97.6639 44.6718 97.4334 44.6231 97.2694 44.525C97.1054 44.4269 96.9902 44.2988 96.9228 44.1399C96.8562 43.981 96.8222 43.6462 96.8222 43.1362V40.2508H96.2207V39.5892H96.8222V38.3471L97.6379 37.8372V39.5892H98.4626V40.2508H97.6379V43.184C97.6379 43.4265 97.6525 43.5821 97.6809 43.6518C97.7102 43.7208 97.7564 43.7759 97.8222 43.8172C97.8871 43.8578 97.9804 43.8789 98.1022 43.8789C98.1931 43.8789 98.3132 43.8675 98.4618 43.8456H98.4626Z" fill="#FDFDFD"/>
<path d="M102.576 42.9911L103.424 43.0997C103.29 43.6129 103.042 44.011 102.681 44.2948C102.32 44.5785 101.858 44.7196 101.296 44.7196C100.589 44.7196 100.028 44.4934 99.613 44.0418C99.1982 43.5902 98.9912 42.9562 98.9912 42.1406C98.9912 41.325 99.2006 40.6415 99.6203 40.1762C100.039 39.71 100.583 39.4773 101.251 39.4773C101.919 39.4773 102.426 39.7059 102.836 40.1624C103.246 40.6188 103.451 41.2609 103.451 42.0895C103.451 42.1398 103.45 42.2152 103.447 42.3165H99.8386C99.8687 42.8678 100.02 43.2894 100.29 43.5821C100.56 43.8748 100.897 44.0215 101.301 44.0215C101.602 44.0215 101.859 43.9397 102.072 43.7759C102.284 43.6121 102.453 43.3511 102.577 42.9919L102.576 42.9911ZM99.8841 41.6169H102.585C102.549 41.1953 102.446 40.8783 102.275 40.6675C102.014 40.3399 101.675 40.1762 101.259 40.1762C100.882 40.1762 100.566 40.3067 100.309 40.5678C100.053 40.8288 99.9109 41.1791 99.8833 41.616L99.8841 41.6169Z" fill="#FDFDFD"/>
<path d="M104.148 42.0985C104.148 41.1693 104.397 40.4818 104.896 40.0343C105.312 39.663 105.818 39.4773 106.417 39.4773C107.082 39.4773 107.626 39.7035 108.048 40.1551C108.47 40.6067 108.681 41.2309 108.681 42.0279C108.681 42.6733 108.588 43.1808 108.401 43.5513C108.215 43.921 107.943 44.2088 107.585 44.4131C107.228 44.6174 106.839 44.7204 106.417 44.7204C105.74 44.7204 105.192 44.495 104.775 44.0451C104.357 43.5951 104.148 42.9465 104.148 42.0993V42.0985ZM104.99 42.0985C104.99 42.7406 105.125 43.2221 105.396 43.5416C105.667 43.861 106.007 44.0207 106.417 44.0207C106.827 44.0207 107.162 43.8602 107.433 43.5392C107.703 43.2181 107.839 42.7284 107.839 42.0701C107.839 41.4499 107.703 40.9796 107.431 40.6602C107.159 40.3407 106.822 40.181 106.417 40.181C106.013 40.181 105.667 40.3399 105.397 40.6577C105.127 40.9756 104.991 41.4555 104.991 42.0985H104.99Z" fill="#FDFDFD"/>
<path d="M109.633 44.606V39.5899H110.371V40.3504C110.559 39.9945 110.733 39.7602 110.893 39.6467C111.052 39.5332 111.227 39.4764 111.419 39.4764C111.695 39.4764 111.977 39.5681 112.262 39.7505L111.979 40.5393C111.779 40.4169 111.578 40.3553 111.378 40.3553C111.198 40.3553 111.038 40.4112 110.895 40.5231C110.752 40.635 110.65 40.7899 110.589 40.9885C110.499 41.2909 110.453 41.6217 110.453 41.98V44.606H109.633Z" fill="#FDFDFD"/>
<path d="M112.444 42.0985C112.444 41.1693 112.693 40.4818 113.191 40.0343C113.608 39.663 114.114 39.4773 114.713 39.4773C115.378 39.4773 115.922 39.7035 116.344 40.1551C116.766 40.6067 116.977 41.2309 116.977 42.0279C116.977 42.6733 116.884 43.1808 116.697 43.5513C116.51 43.921 116.238 44.2088 115.881 44.4131C115.524 44.6174 115.135 44.7204 114.713 44.7204C114.036 44.7204 113.488 44.495 113.07 44.0451C112.652 43.5951 112.444 42.9465 112.444 42.0993V42.0985ZM113.286 42.0985C113.286 42.7406 113.421 43.2221 113.692 43.5416C113.963 43.861 114.303 44.0207 114.713 44.0207C115.122 44.0207 115.458 43.8602 115.729 43.5392C115.999 43.2181 116.135 42.7284 116.135 42.0701C116.135 41.4499 115.999 40.9796 115.727 40.6602C115.455 40.3407 115.118 40.181 114.713 40.181C114.309 40.181 113.963 40.3399 113.693 40.6577C113.423 40.9756 113.287 41.4555 113.287 42.0985H113.286Z" fill="#FDFDFD"/>
<path d="M117.92 44.6061V37.6823H118.74V44.6061H117.92Z" fill="#FDFDFD"/>
<path d="M119.706 42.0985C119.706 41.1693 119.955 40.4818 120.453 40.0343C120.87 39.663 121.376 39.4773 121.975 39.4773C122.64 39.4773 123.184 39.7035 123.606 40.1551C124.028 40.6067 124.239 41.2309 124.239 42.0279C124.239 42.6733 124.146 43.1808 123.959 43.5513C123.772 43.921 123.5 44.2088 123.143 44.4131C122.786 44.6174 122.396 44.7204 121.974 44.7204C121.297 44.7204 120.749 44.495 120.332 44.0451C119.914 43.5951 119.706 42.9465 119.706 42.0993V42.0985ZM120.548 42.0985C120.548 42.7406 120.683 43.2221 120.954 43.5416C121.224 43.861 121.564 44.0207 121.974 44.0207C122.384 44.0207 122.719 43.8602 122.99 43.5392C123.261 43.2181 123.396 42.7284 123.396 42.0701C123.396 41.4499 123.261 40.9796 122.989 40.6602C122.717 40.3407 122.379 40.181 121.975 40.181C121.571 40.181 121.225 40.3399 120.955 40.6577C120.684 40.9756 120.549 41.4555 120.549 42.0985H120.548Z" fill="#FDFDFD"/>
<path d="M125.049 45.022L125.846 45.1444C125.88 45.3998 125.972 45.5854 126.124 45.7014C126.328 45.8587 126.605 45.9373 126.958 45.9373C127.338 45.9373 127.631 45.8587 127.837 45.7014C128.043 45.5441 128.183 45.3236 128.256 45.0398C128.298 44.8663 128.318 44.5031 128.315 43.9485C127.956 44.3863 127.51 44.6052 126.976 44.6052C126.311 44.6052 125.795 44.3563 125.431 43.8593C125.066 43.3616 124.884 42.7648 124.884 42.0692C124.884 41.5909 124.967 41.149 125.135 40.7445C125.302 40.3399 125.544 40.0278 125.861 39.8072C126.178 39.5867 126.551 39.4764 126.98 39.4764C127.55 39.4764 128.021 39.7156 128.392 40.1948V39.5899H129.148V43.9258C129.148 44.7066 129.071 45.2603 128.919 45.5862C128.766 45.9122 128.523 46.1692 128.19 46.3581C127.857 46.547 127.448 46.6418 126.962 46.6418C126.385 46.6418 125.919 46.5073 125.563 46.2381C125.208 45.9689 125.036 45.5635 125.049 45.022H125.049ZM125.728 42.0084C125.728 42.6667 125.854 43.1467 126.106 43.4491C126.359 43.7515 126.674 43.9023 127.053 43.9023C127.433 43.9023 127.746 43.7523 128.001 43.4515C128.256 43.1508 128.383 42.6789 128.383 42.0368C128.383 41.3947 128.251 40.9601 127.989 40.648C127.726 40.3367 127.41 40.1802 127.04 40.1802C126.67 40.1802 126.365 40.3334 126.11 40.6407C125.855 40.948 125.728 41.4036 125.728 42.0084Z" fill="#FDFDFD"/>
<path d="M130.352 46.5381L130.261 45.7403C130.441 45.7905 130.596 45.8157 130.73 45.8157C130.913 45.8157 131.058 45.7841 131.168 45.7208C131.277 45.6576 131.367 45.57 131.437 45.4565C131.488 45.3714 131.571 45.1606 131.687 44.8233C131.703 44.7763 131.727 44.7066 131.76 44.6158L129.924 39.5908H130.808L131.815 42.4957C131.945 42.8638 132.062 43.2513 132.165 43.6575C132.26 43.2667 132.372 42.8865 132.502 42.5143L133.536 39.5908H134.356L132.516 44.692C132.319 45.2433 132.165 45.6227 132.056 45.8303C131.91 46.1108 131.743 46.3159 131.555 46.4465C131.367 46.577 131.142 46.6426 130.88 46.6426C130.722 46.6426 130.546 46.6078 130.352 46.5389V46.5381Z" fill="#FDFDFD"/>
</svg>
