<svg width="372" height="109" viewBox="0 0 372 109" fill="none" xmlns="http://www.w3.org/2000/svg">
<path d="M44.5055 78.0549C48.0633 78.3696 51.2902 79.5527 54.1862 81.6865C55.0181 82.2924 55.8019 82.9637 56.5353 83.6854C58.7461 85.862 61.3199 87.4133 64.2813 88.3394C66.4087 89.0043 68.5853 89.3094 70.8101 89.2066C79.5679 88.8009 86.5817 82.7057 88.5999 74.8055C89.1737 72.5593 89.3289 70.2627 89.0913 67.9576C88.345 60.7298 83.3334 54.322 76.144 51.8723C74.0177 51.1475 71.8283 50.7867 69.5821 50.8467C64.4719 50.9816 60.0758 52.8713 56.4367 56.4493C53.6317 59.2062 50.4112 61.2554 46.6961 62.5456C44.6832 63.2447 42.6437 63.6601 40.5174 63.84C28.8463 64.826 18.3295 57.8412 14.4056 47.3425C13.7011 45.4592 13.2278 43.5278 12.9795 41.531C12.7932 40.03 12.7321 38.5257 12.821 37.0193C13.1529 31.4071 15.0597 26.3825 18.6538 22.0561C22.233 17.7478 26.7875 14.8967 32.2242 13.5316C34.6128 12.9321 37.0614 12.688 39.5228 12.8132C46.1147 13.1494 51.7623 15.6826 56.4614 20.3067C60.0309 23.8194 64.2246 26.1213 69.1131 27.1994C70.8561 27.5838 72.6056 27.799 74.3935 27.7915C74.5755 27.7915 74.9749 27.7926 75.159 27.7979C74.9877 27.9039 74.7961 28.0131 74.7051 28.0634C73.3368 28.8225 71.8936 29.3782 70.3829 29.7786C68.4665 30.2861 66.5329 30.5045 64.5533 30.3889C59.7878 30.1244 55.5138 28.3043 52.0246 24.8986C50.8041 23.6642 49.4498 22.6032 47.9423 21.7349C45.7657 20.4812 43.3995 19.6525 40.9103 19.3334C30.7092 18.0283 21.9022 24.7059 19.6881 33.877C19.2106 35.8534 19.0842 37.8652 19.2373 39.9004C19.8508 48.0587 25.7115 54.9901 33.7028 56.9718C35.7284 57.4739 37.7819 57.6849 39.8654 57.5082C44.573 57.1088 48.5911 55.2256 51.9475 51.9109C55.2098 48.6893 59.048 46.4699 63.4816 45.3008C66.0479 44.623 68.6581 44.3382 71.3112 44.4903C77.5541 44.8489 83.0143 47.1423 87.5656 51.4195C91.4981 55.1164 94.0002 59.6966 95.0901 64.9845C95.5173 67.0551 95.65 69.1343 95.5569 71.2509C95.119 81.1801 88.8172 89.9368 79.72 93.6884C77.5883 94.5673 75.3946 95.1273 73.1056 95.4078C65.3434 96.3607 57.6091 93.7355 52.0396 88.212C49.8041 85.9947 47.2849 84.1961 44.4167 82.8952C42.1897 81.8856 38.374 80.5205 33.1578 80.6094C38.1877 77.7048 42.6908 77.8932 44.5066 78.0538L44.5055 78.0549Z" fill="url(#paint0_linear_4962_9775)"/>
<path d="M49.3416 30.9072C48.6007 30.4082 47.9155 29.8376 47.2774 29.2123C43.9359 25.9404 39.2133 24.8184 34.8622 26.0636C28.2039 27.9693 24.2597 34.7722 25.9684 41.5022C27.674 48.2215 34.4201 52.3842 41.2572 50.8082C43.5987 50.2686 45.6072 49.1273 47.332 47.455C47.9583 46.8468 48.5879 46.2398 49.2538 45.6766C51.9743 43.379 54.9089 41.6168 58.0298 40.3545C61.4602 38.9669 65.1185 38.1854 69.0264 38.0376C70.4311 37.9841 71.8315 38.0547 73.2308 38.195C74.7832 38.3502 76.3271 38.6136 77.8399 38.9937C81.524 39.9198 85.0132 41.5151 88.1245 43.6574C92.0344 46.349 95.3534 49.9067 97.7666 54.1058C100.133 58.2213 101.484 62.6377 101.883 67.3657C102.012 68.8849 102.032 70.3977 101.936 71.9234C101.82 73.7392 101.588 75.5646 101.158 77.3312C100.18 81.3621 98.5621 84.967 96.3502 88.1778C94.3513 91.0782 91.8706 93.6595 88.8418 95.8618C83.8483 99.4924 78.1632 101.534 71.9803 101.935C70.0831 102.058 68.1602 102.002 66.2673 101.779C63.8777 101.499 61.5479 100.956 59.2835 100.149C54.8136 98.5534 50.8822 96.0663 47.5033 92.7324C46.7346 91.9743 45.9477 91.2388 45.1104 90.5579C39.223 85.7743 32.5026 83.3632 24.9214 83.2711C22.9996 83.2475 21.1088 83.4328 19.2148 83.7593C16.6731 84.1983 13.6293 85.164 11.6111 86.1137C15.6068 85.6929 19.5178 85.9798 22.2769 86.4595C26.2854 87.1575 30.0893 88.4455 33.6867 90.3502C37.1309 92.1735 40.2122 94.4732 42.9713 97.2269C45.8909 100.141 49.2099 102.519 52.9004 104.362C57.4913 106.653 62.3638 107.96 67.4793 108.298C69.7373 108.447 71.9974 108.396 74.249 108.143C76.0723 107.94 77.8763 107.632 79.645 107.155C89.0934 104.605 96.6082 99.2761 102.044 91.1414C105.98 85.2529 108.027 78.7005 108.35 71.63C108.446 69.523 108.346 67.4064 108.087 65.31C107.851 63.4032 107.496 61.5521 106.977 59.7031C104.159 49.6583 97.3791 41.2024 88.208 36.24C82.5903 33.2005 76.5915 31.7037 70.2062 31.6587C68.8529 31.6491 67.4911 31.6941 66.1442 31.8258C64.3873 31.9971 62.6935 32.315 60.9538 32.7315C54.9175 34.1769 49.1906 37.0922 44.0376 41.7816C42.9477 42.7741 42.2936 43.667 40.8214 44.272C39.6801 44.7409 38.3226 44.954 36.7059 44.5375C33.6867 43.7602 31.3024 40.5782 32.1342 36.8781C32.9019 33.466 36.3922 31.3161 39.7925 32.1202C40.9906 32.4028 42.0291 32.9992 42.907 33.8568C44.0537 34.9777 45.4198 35.6008 47.0258 35.6908C49.7666 35.8449 51.9186 34.2882 52.9079 32.5656C51.955 32.2455 51.0589 32.0634 49.3416 30.9061V30.9072Z" fill="url(#paint1_linear_4962_9775)"/>
<path d="M55.4731 75.7936C58.0834 71.6566 63.1496 72.0892 65.4269 74.512C66.3798 75.4242 67.4718 76.0527 68.7726 76.2968C72.2297 76.9467 75.3581 74.814 76.1889 71.6834C76.5733 70.2327 76.4491 68.7466 75.8924 67.4608C75.1547 65.7563 73.4909 64.1954 71.3004 63.7468C69.1955 63.3164 67.1763 63.9106 65.5318 65.4405C64.8305 66.0936 64.156 66.7756 63.4312 67.4019C58.4174 71.7284 52.6617 74.5763 46.1811 75.9392C43.1544 76.5752 40.0902 76.8129 36.996 76.7111C20.7137 76.1758 6.58557 65.2863 1.74627 49.8627C1.09425 47.7846 0.62958 45.6626 0.338366 43.5031C-0.0053099 40.9646 -0.0888219 38.4143 0.0953282 35.8641C0.781609 26.4082 4.39395 18.2306 11.0201 11.4513C16.0832 6.27158 22.1923 2.83375 29.2253 1.08861C30.9876 0.651786 32.7895 0.354147 34.5967 0.173209C36.3718 -0.00451717 38.1341 -0.0398487 39.9135 0.04152C47.8855 0.405538 55.1305 2.97722 61.5201 7.7694C63.0019 8.88073 64.3477 10.113 65.6635 11.416C68.9204 14.6408 72.6237 17.1718 76.7982 19.0604C79.7745 20.4072 82.8644 21.3719 86.0849 21.9276C88.0966 22.2744 90.1234 22.449 92.1619 22.4854C93.377 22.5068 95.1446 22.4179 96.7249 22.2627C95.5237 22.8911 92.7282 23.8558 91.0237 24.2455C87.8921 24.9617 84.6834 25.2722 81.4544 25.0442C76.8635 24.7198 72.627 23.511 68.7191 21.4533C66.7834 20.434 64.9344 19.2071 63.1711 17.7595C62.3499 17.0861 61.5822 16.3559 60.8263 15.6108C57.6369 12.4674 53.9357 10.0841 49.7548 8.48138C47.4123 7.58418 45.0044 6.97713 42.5152 6.65808C40.8482 6.44395 39.1791 6.34545 37.4992 6.3947C28.4052 6.66236 20.1377 10.6558 14.3359 17.2542C10.761 21.3194 8.37459 26.0153 7.16584 31.2935C6.58234 33.8416 6.33716 36.4326 6.38427 39.0482C6.64015 53.1046 16.1699 65.2339 29.4437 69.0818C31.4876 69.6738 33.5689 70.0582 35.6909 70.2295C37.6587 70.3879 39.6255 70.3901 41.5869 70.1824C48.1553 69.4875 53.9957 67.0101 59.0459 62.7479C59.7386 62.1633 60.382 61.537 61.0341 60.9074C62.8017 59.2008 64.8562 58.052 67.2598 57.5317C73.8453 56.1056 80.3388 59.9781 82.2531 66.3152C83.661 70.9768 82.268 75.6919 79.2392 78.8803C78.1761 80.0002 76.1783 81.6264 73.2907 82.3812C71.5734 82.8298 69.5392 82.9904 67.2031 82.498C65.0211 82.0376 62.9334 80.9198 61.0887 79.1725C59.972 78.1148 58.6326 76.8171 55.471 75.7925L55.4731 75.7936Z" fill="url(#paint2_linear_4962_9775)"/>
<path d="M239.95 68.5442C239.619 68.5442 239.139 68.5122 238.774 68.4512C235.152 67.8399 233.008 64.9573 232.681 62.1767C232.633 61.7621 232.602 61.3429 232.602 60.9252C232.596 57.4129 232.602 53.9022 232.594 50.39C232.594 50.0333 232.578 49.6674 232.498 49.3229C232.116 47.6491 230.68 46.4844 228.966 46.46C227.61 46.4417 226.251 46.4554 224.895 46.4554C223.757 46.4554 222.596 46.4402 221.459 46.46C219.869 46.489 218.486 47.5439 218.016 49.0607C217.891 49.4631 217.841 49.8762 217.843 50.3C217.847 51.4174 217.843 52.5348 217.843 53.6522C217.843 58.3611 217.843 63.07 217.843 67.779C217.843 67.9985 217.843 68.2851 217.843 68.5457C216.699 68.5457 215.808 68.3232 215.07 68.0213C212.785 67.0869 211.048 65.0137 210.596 62.5655C210.496 62.0304 210.472 61.4968 210.472 60.9572C210.472 57.4648 210.472 53.9739 210.469 50.4814C210.469 50.1826 210.446 49.8839 210.411 49.5881C210.225 48.0668 208.919 46.5225 206.905 46.457C206.826 46.4539 206.745 46.4554 206.666 46.4554C204.31 46.4554 201.903 46.4753 199.548 46.4692C199.021 46.4692 198.507 46.5347 198.028 46.7481C196.609 47.3853 195.824 48.4753 195.739 50.0439C195.726 50.2634 195.734 50.4829 195.734 50.7025C195.734 54.1537 195.734 57.6065 195.734 61.0578C195.734 62.1905 195.534 63.285 195.036 64.3063C193.906 66.6189 192.068 67.9726 189.54 68.439C189.178 68.5061 188.764 68.5442 188.364 68.5457C188.364 68.4192 188.364 68.2287 188.364 68.1143C188.364 63.285 188.319 58.4556 188.374 53.6278C188.455 46.5591 193.473 40.7694 200.08 39.431C205.259 38.3822 209.795 39.7724 213.605 43.4584C213.791 43.6383 213.971 43.8243 214.17 44.0255C214.362 43.9417 214.469 43.7694 214.602 43.6322C216.644 41.5331 219.08 40.1215 221.943 39.4736C229.811 37.6962 237.279 42.428 239.384 49.797C239.753 51.0912 239.941 52.4129 239.944 53.7543C239.954 58.5227 239.948 63.2926 239.948 68.061C239.948 68.1799 239.948 68.3689 239.948 68.5457L239.95 68.5442Z" fill="#808080"/>
<path d="M128.364 68.5443C128.355 68.2226 128.407 67.6311 128.483 67.2272C129.139 63.7347 131.936 61.6219 134.646 61.2713C135.041 61.221 135.44 61.1874 135.838 61.1829C137.056 61.1707 138.274 61.1951 139.491 61.1722C140.658 61.1509 141.607 60.6524 142.326 59.7347C142.822 59.1036 143.081 58.3795 143.084 57.5731C143.087 56.7148 143.087 55.8566 143.087 54.9998C143.087 53.4236 143.085 51.8473 143.087 50.2711C143.087 49.8092 143.041 49.3565 142.886 48.9174C142.37 47.4662 141.014 46.4784 139.46 46.457C138.183 46.4387 136.905 46.4601 135.628 46.4494C132.369 46.4219 129.422 45.4357 126.834 43.4585C123.695 41.0606 121.769 37.8929 121.176 33.9919C119.933 25.8195 125.422 18.8377 132.663 17.3285C133.623 17.1288 134.591 17.0053 135.572 17.0038C137.887 16.9977 140.203 17.0008 142.517 17.0008C142.674 17.0008 142.892 17.0008 143.079 17.0008C143.079 17.1395 143.076 17.263 143.072 17.3742C143.003 19.0054 142.441 20.4536 141.393 21.699C139.905 23.4688 137.979 24.3393 135.674 24.3713C134.517 24.3865 133.358 24.3667 132.201 24.3805C131.844 24.385 131.478 24.4064 131.135 24.4933C129.52 24.9049 128.43 26.2814 128.358 27.9781C128.343 28.3363 128.353 28.6961 128.353 29.0558C128.353 31.0909 128.355 33.126 128.352 35.1611C128.352 35.5834 128.39 35.998 128.501 36.4035C128.858 37.7023 130.067 39.0545 132.059 39.0956C132.639 39.1078 133.216 39.0956 133.796 39.0987C134.654 39.1032 135.512 39.088 136.37 39.1185C143.023 39.3548 148.771 44.2146 150.145 50.794C151.752 58.4968 147.043 66.0503 139.488 68.0565C138.245 68.3857 136.98 68.5366 135.698 68.5412C133.469 68.5412 128.638 68.5412 128.363 68.5412L128.364 68.5443Z" fill="#808080"/>
<path d="M176.232 68.5443C176.232 68.5443 171.188 68.5443 168.921 68.5443C164.837 68.5122 161.317 67.0778 158.429 64.186C156.128 61.8841 154.747 59.1005 154.298 55.8718C153.208 48.0668 158.345 40.995 165.784 39.4264C174.071 37.681 181.589 43.0179 183.277 50.6857C183.508 51.7422 183.604 52.8138 183.604 53.8931C183.604 58.5609 183.61 67.7363 183.61 68.5427C183.21 68.5488 182.78 68.5092 182.411 68.4467C178.882 67.8369 176.723 65.0533 176.344 62.3246C176.284 61.8917 176.249 61.4512 176.249 61.0152C176.241 57.4846 176.248 53.9526 176.241 50.422C176.241 50.0851 176.228 49.7406 176.159 49.4129C175.804 47.6842 174.347 46.4738 172.583 46.4585C170.627 46.4418 168.671 46.454 166.715 46.454C166.217 46.454 165.717 46.4494 165.218 46.4555C163.141 46.4829 161.532 48.0698 161.517 50.14C161.5 52.5943 161.511 55.0471 161.514 57.5014C161.517 59.5868 163.249 61.1996 165.221 61.1813C166.439 61.1707 167.656 61.1737 168.874 61.1813C172.353 61.2042 175.275 63.535 176.059 66.9192C176.174 67.4208 176.234 67.9543 176.234 68.5443H176.232Z" fill="#808080"/>
<path d="M273.164 68.5443C273.124 68.5443 261.208 68.5443 261.208 68.5443C259.991 68.5427 258.772 68.5564 257.557 68.4985C254.775 68.3674 252.238 67.4741 249.976 65.8598C246.575 63.4329 244.499 60.1417 243.881 56.012C242.7 48.1019 247.886 41.0072 255.328 39.431C263.805 37.6352 271.292 43.2253 272.857 50.7848C273.023 51.5882 273.113 52.3992 273.167 53.2147C273.179 53.39 273.174 53.6263 273.171 53.8184H258.433C258.444 51.8504 259.09 50.4281 260.067 49.2086C260.843 48.2406 261.993 47.271 263.584 46.7649C263.139 46.5485 262.539 46.4524 262.055 46.4524C260.837 46.4524 259.621 46.4524 258.403 46.4524C257.185 46.4524 255.967 46.4357 254.75 46.457C253.416 46.4814 252.375 47.0683 251.645 48.1857C251.217 48.8412 251.067 49.576 251.067 50.3504C251.07 52.2254 251.067 54.1019 251.067 55.977C251.067 56.4755 251.057 56.9755 251.07 57.474C251.107 58.7285 251.607 59.7514 252.631 60.4923C253.282 60.9633 254.016 61.1813 254.82 61.1783C256.596 61.1722 258.374 61.1783 260.15 61.1783C262.046 61.1783 263.943 61.1691 265.839 61.1813C269.142 61.2027 272.002 63.3795 272.897 66.5457C273.071 67.1601 273.179 67.8674 273.164 68.5427V68.5443Z" fill="#808080"/>
<path d="M337.172 68.5443C337.127 68.5443 325.216 68.5443 325.216 68.5443C324 68.5427 322.78 68.5564 321.565 68.4985C318.783 68.3674 316.247 67.4741 313.984 65.8598C310.583 63.4329 308.507 60.1417 307.89 56.012C306.708 48.1019 311.894 41.0072 319.337 39.431C327.814 37.6352 335.3 43.2253 336.866 50.7848C337.032 51.5882 337.122 52.3992 337.175 53.2147C337.188 53.39 337.183 53.6263 337.18 53.8184H322.442C322.453 51.8504 323.099 50.4281 324.076 49.2086C324.852 48.2406 326.001 47.271 327.593 46.7649C327.148 46.5485 326.547 46.4524 326.064 46.4524C324.846 46.4524 323.629 46.4524 322.411 46.4524C321.193 46.4524 319.975 46.4357 318.759 46.457C317.425 46.4814 316.384 47.0683 315.654 48.1857C315.225 48.8412 315.076 49.576 315.076 50.3504C315.079 52.2254 315.076 54.1019 315.076 55.977C315.076 56.4755 315.065 56.9755 315.079 57.474C315.116 58.7285 315.616 59.7514 316.64 60.4923C317.291 60.9633 318.024 61.1813 318.829 61.1783C320.605 61.1722 322.382 61.1783 324.158 61.1783C326.055 61.1783 327.951 61.1691 329.847 61.1813C333.151 61.2027 336.011 63.3795 336.905 66.5457C337.079 67.1601 337.188 67.8674 337.172 68.5427V68.5443Z" fill="#808080"/>
<path d="M273.418 39.0804C273.921 39.0804 278.446 39.0773 280.581 39.0819C281.025 39.0819 281.458 39.0377 281.88 38.9035C283.371 38.4325 284.397 37.0849 284.467 35.5071C284.475 35.3273 284.472 35.1474 284.472 34.969C284.472 32.8943 284.472 30.8196 284.472 28.7433C284.472 28.5284 284.472 28.0208 284.472 28.0208C284.861 28.0284 285.171 28.0543 285.482 28.0985C288.876 28.5787 291.519 31.344 291.804 34.7785C291.816 34.9263 291.815 35.0742 291.815 35.2206C291.818 36.4675 292.266 37.5392 293.329 38.3517C293.964 38.838 294.755 39.0666 295.557 39.0758C296.455 39.0849 297.327 39.2282 298.155 39.5697C300.74 40.6338 302.28 42.5576 302.788 45.3015C302.852 45.6476 302.888 46.0652 302.882 46.4311C302.621 46.4311 297.978 46.4265 295.882 46.4311C295.623 46.4311 295.364 46.4479 295.106 46.4692C293.649 46.5851 291.943 47.8122 291.824 50.0135C291.818 50.1324 291.819 50.2528 291.819 50.3732C291.819 52.6675 291.821 54.9617 291.818 57.2575C291.818 57.6797 291.858 58.0944 291.975 58.4999C292.457 60.1569 293.97 61.1432 295.373 61.1493C296.591 61.1539 297.809 61.1508 299.025 61.1554C299.888 61.1585 300.742 61.2545 301.554 61.5563C304.367 62.599 306.006 64.6158 306.497 67.5656C306.545 67.8552 306.596 68.5427 306.596 68.5427H298.792C291.716 68.3446 286.252 63.3018 284.839 57.1188C284.594 56.0456 284.464 54.9587 284.469 53.8565C284.473 52.6202 284.486 51.3824 284.464 50.1461C284.44 48.7924 283.853 47.7314 282.71 46.9936C282.057 46.5729 281.322 46.425 280.553 46.4311C279.883 46.4357 279.214 46.3274 278.581 46.1064C277.144 45.6033 276.008 44.8457 275.155 43.8518C273.376 41.7771 273.437 39.5484 273.417 39.0834L273.418 39.0804Z" fill="#808080"/>
<path d="M371.834 53.8398C371.783 62.0685 365.159 68.5686 357.063 68.5427C348.679 68.5168 342.335 61.6524 342.366 53.7711C342.396 45.7405 348.957 39.0682 357.162 39.0956C365.023 39.1215 371.798 45.457 371.836 53.8398H371.834ZM357.081 61.1722V61.1676C358.357 61.1676 359.635 61.1783 360.91 61.1646C362.81 61.1463 364.446 59.5151 364.452 57.5852C364.461 55.073 364.455 52.5623 364.453 50.0501C364.453 48.5683 363.42 47.0744 361.848 46.6293C361.45 46.5165 361.025 46.4585 360.612 46.4555C358.258 46.4387 355.906 46.4479 353.552 46.4479C353.473 46.4479 353.392 46.4479 353.313 46.4524C351.36 46.5561 350.243 47.8808 349.89 49.079C349.765 49.5028 349.721 49.9357 349.723 50.3778C349.727 52.6705 349.724 54.9632 349.724 57.2544C349.724 57.3733 349.723 57.4938 349.727 57.6127C349.796 59.1234 350.741 60.4237 352.142 60.9496C352.599 61.1204 353.069 61.1707 353.551 61.1691C354.727 61.1676 355.904 61.1691 357.081 61.1691V61.1722Z" fill="#808080"/>
<path d="M120 97.0581L121.566 96.9163C121.64 97.5672 121.813 98.1023 122.084 98.5185C122.355 98.9361 122.776 99.273 123.346 99.5307C123.916 99.7883 124.558 99.9164 125.271 99.9164C125.904 99.9164 126.464 99.8188 126.948 99.6237C127.433 99.4285 127.794 99.1602 128.031 98.8203C128.267 98.4803 128.386 98.1084 128.386 97.706C128.386 97.3035 128.271 96.9407 128.044 96.6358C127.816 96.3309 127.439 96.0748 126.915 95.8675C126.578 95.7318 125.834 95.5199 124.681 95.2318C123.529 94.9452 122.723 94.6739 122.261 94.4193C121.662 94.0931 121.215 93.6891 120.922 93.2074C120.628 92.7242 120.482 92.1845 120.482 91.587C120.482 90.9299 120.662 90.3156 121.021 89.7439C121.381 89.1723 121.906 88.7393 122.596 88.4436C123.287 88.1479 124.053 88 124.898 88C125.828 88 126.648 88.1555 127.358 88.4665C128.069 88.7775 128.614 89.2348 128.997 89.8385C129.38 90.4421 129.584 91.1266 129.613 91.8903L128.021 92.0153C127.936 91.1921 127.646 90.5702 127.153 90.1509C126.659 89.7302 125.93 89.5198 124.967 89.5198C124.003 89.5198 123.232 89.7104 122.771 90.093C122.313 90.4741 122.082 90.936 122.082 91.4741C122.082 91.9421 122.245 92.3263 122.57 92.6281C122.889 92.93 123.724 93.2394 125.073 93.5565C126.422 93.8736 127.348 94.1495 127.849 94.3873C128.579 94.7364 129.119 95.18 129.467 95.7151C129.814 96.2501 129.988 96.8675 129.988 97.5672C129.988 98.2669 129.797 98.9133 129.415 99.5261C129.032 100.139 128.483 100.616 127.768 100.956C127.052 101.296 126.247 101.467 125.351 101.467C124.215 101.467 123.264 101.294 122.497 100.951C121.73 100.608 121.128 100.092 120.692 99.4011C120.256 98.7105 120.026 97.9316 120.003 97.0611L120 97.0581Z" fill="#808080"/>
<path d="M132.055 101.241V91.8095H133.433V93.1327C133.718 92.6708 134.098 92.2989 134.57 92.0184C135.043 91.7379 135.583 91.5961 136.188 91.5961C136.86 91.5961 137.412 91.7409 137.843 92.0306C138.273 92.3202 138.578 92.7257 138.755 93.2471C139.473 92.1464 140.409 91.5946 141.561 91.5946C142.462 91.5946 143.156 91.8538 143.641 92.3721C144.125 92.8904 144.368 93.6876 144.368 94.7654V101.24H142.836V95.2989C142.836 94.6602 142.785 94.1998 142.686 93.9178C142.587 93.6373 142.406 93.4102 142.144 93.2379C141.881 93.0657 141.574 92.9803 141.22 92.9803C140.581 92.9803 140.051 93.2013 139.628 93.6419C139.206 94.0824 138.996 94.7898 138.996 95.7593V101.238H137.456V95.1099C137.456 94.3995 137.331 93.866 137.08 93.5108C136.828 93.1556 136.418 92.9772 135.848 92.9772C135.415 92.9772 135.014 93.0961 134.645 93.3324C134.278 93.5687 134.011 93.9163 133.845 94.3721C133.679 94.8279 133.596 95.4849 133.596 96.3431V101.237H132.057L132.055 101.241Z" fill="#808080"/>
<path d="M152.581 100.078C152.011 100.581 151.462 100.936 150.935 101.144C150.407 101.351 149.84 101.454 149.237 101.454C148.238 101.454 147.471 101.201 146.935 100.695C146.398 100.189 146.13 99.5429 146.13 98.7548C146.13 98.2929 146.231 97.8706 146.433 97.4895C146.636 97.1084 146.901 96.802 147.229 96.5703C147.557 96.3401 147.926 96.1648 148.337 96.0459C148.639 95.9636 149.096 95.8828 149.706 95.8066C150.95 95.6526 151.865 95.4696 152.453 95.2562C152.459 95.0367 152.462 94.898 152.462 94.8385C152.462 94.1876 152.318 93.7288 152.026 93.462C151.633 93.1007 151.048 92.9208 150.272 92.9208C149.548 92.9208 149.013 93.0519 148.668 93.3156C148.324 93.5794 148.067 94.0458 147.903 94.7151L146.397 94.5016C146.534 93.8324 146.76 93.2928 147.072 92.8812C147.386 92.4696 147.839 92.1525 148.432 91.9315C149.025 91.7089 149.712 91.5992 150.494 91.5992C151.276 91.5992 151.9 91.6937 152.385 91.8827C152.869 92.0717 153.226 92.3111 153.455 92.5977C153.683 92.8842 153.842 93.2471 153.933 93.6861C153.985 93.959 154.011 94.4498 154.011 95.1602V97.2913C154.011 98.7776 154.043 99.7167 154.11 100.111C154.176 100.505 154.305 100.883 154.499 101.244H152.891C152.731 100.913 152.629 100.525 152.583 100.081L152.581 100.078ZM152.453 96.5078C151.894 96.7441 151.055 96.9453 149.938 97.1114C149.305 97.206 148.857 97.3127 148.595 97.4316C148.333 97.5505 148.13 97.7227 147.988 97.9514C147.845 98.1801 147.775 98.4331 147.775 98.7105C147.775 99.1374 147.93 99.4926 148.241 99.7761C148.552 100.06 149.007 100.203 149.606 100.203C150.205 100.203 150.726 100.069 151.188 99.799C151.65 99.5292 151.99 99.1618 152.206 98.6938C152.371 98.3325 152.455 97.8005 152.455 97.0947V96.5093L152.453 96.5078Z" fill="#808080"/>
<path d="M156.38 101.241V91.8095H157.766V93.2394C158.119 92.5702 158.446 92.1297 158.746 91.9162C159.045 91.7028 159.376 91.5961 159.734 91.5961C160.252 91.5961 160.781 91.7684 161.316 92.1114L160.786 93.5946C160.409 93.3644 160.033 93.2486 159.656 93.2486C159.319 93.2486 159.017 93.3538 158.749 93.5641C158.481 93.7745 158.29 94.0657 158.176 94.4391C158.005 95.0077 157.92 95.6297 157.92 96.3035V101.241H156.38Z" fill="#808080"/>
<path d="M165.595 99.8112L165.818 101.223C165.385 101.317 164.996 101.365 164.655 101.365C164.095 101.365 163.662 101.273 163.354 101.089C163.046 100.906 162.83 100.663 162.703 100.365C162.578 100.066 162.516 99.4362 162.516 98.4773V93.0519H161.386V91.808H162.516V89.4726L164.048 88.5137V91.808H165.597V93.0519H164.048V98.5673C164.048 99.0231 164.075 99.3157 164.129 99.4468C164.182 99.5764 164.272 99.6801 164.394 99.7578C164.516 99.834 164.693 99.8737 164.92 99.8737C165.091 99.8737 165.316 99.8523 165.595 99.8112Z" fill="#808080"/>
<path d="M170.787 101.241L175.605 88.2226H177.393L182.527 101.241H180.637L179.173 97.2974H173.928L172.55 101.241H170.787ZM174.406 95.895H178.658L177.348 92.2897C176.949 91.1952 176.652 90.2943 176.458 89.59C176.298 90.4254 176.073 91.2531 175.783 92.0763L174.405 95.895H174.406Z" fill="#808080"/>
<path d="M183.656 104.855V91.8095H185.059V93.0352C185.39 92.555 185.763 92.1967 186.179 91.9559C186.596 91.7165 187.1 91.5961 187.693 91.5961C188.469 91.5961 189.154 91.8034 189.747 92.2181C190.34 92.6327 190.788 93.2166 191.09 93.9727C191.391 94.7273 191.542 95.555 191.542 96.4544C191.542 97.4194 191.376 98.2883 191.042 99.0612C190.708 99.834 190.224 100.426 189.588 100.837C188.952 101.249 188.283 101.454 187.582 101.454C187.068 101.454 186.608 101.342 186.201 101.118C185.792 100.892 185.458 100.608 185.196 100.265V104.857H183.656V104.855ZM185.051 96.5794C185.051 97.7929 185.288 98.6907 185.762 99.27C186.236 99.8508 186.809 100.14 187.481 100.14C188.153 100.14 188.751 99.8401 189.239 99.2395C189.727 98.6389 189.971 97.7075 189.971 96.4468C189.971 95.1861 189.733 94.3446 189.256 93.7471C188.78 93.1495 188.21 92.8507 187.548 92.8507C186.887 92.8507 186.312 93.1693 185.807 93.805C185.303 94.4422 185.05 95.366 185.05 96.5809L185.051 96.5794Z" fill="#808080"/>
<path d="M193.401 104.855V91.8095H194.803V93.0352C195.134 92.555 195.507 92.1967 195.923 91.9559C196.34 91.7165 196.844 91.5961 197.437 91.5961C198.213 91.5961 198.898 91.8034 199.491 92.2181C200.084 92.6327 200.532 93.2166 200.834 93.9727C201.135 94.7273 201.286 95.555 201.286 96.4544C201.286 97.4194 201.12 98.2883 200.786 99.0612C200.452 99.834 199.968 100.426 199.332 100.837C198.696 101.249 198.027 101.454 197.326 101.454C196.812 101.454 196.352 101.342 195.945 101.118C195.536 100.892 195.202 100.608 194.94 100.265V104.857H193.401V104.855ZM194.795 96.5794C194.795 97.7929 195.032 98.6907 195.506 99.27C195.98 99.8508 196.553 100.14 197.225 100.14C197.898 100.14 198.495 99.8401 198.983 99.2395C199.471 98.6389 199.715 97.7075 199.715 96.4468C199.715 95.1861 199.477 94.3446 199 93.7471C198.524 93.1495 197.954 92.8507 197.292 92.8507C196.631 92.8507 196.056 93.1693 195.551 93.805C195.047 94.4422 194.794 95.366 194.794 96.5809L194.795 96.5794Z" fill="#808080"/>
<path d="M203.113 101.241V88.2226H204.652V101.241H203.113Z" fill="#808080"/>
<path d="M207.047 90.061V88.2226H208.587V90.061H207.047ZM207.047 101.241V91.8095H208.587V101.241H207.047Z" fill="#808080"/>
<path d="M216.861 97.7868L218.375 97.991C218.209 99.0749 217.787 99.9225 217.105 100.535C216.424 101.148 215.587 101.454 214.594 101.454C213.351 101.454 212.352 101.032 211.596 100.189C210.84 99.3462 210.462 98.1358 210.462 96.5611C210.462 95.5428 210.625 94.651 210.95 93.8873C211.274 93.1236 211.77 92.5504 212.434 92.1693C213.099 91.7882 213.822 91.5961 214.604 91.5961C215.59 91.5961 216.398 91.8553 217.024 92.3736C217.652 92.8919 218.053 93.6266 218.23 94.5809L216.733 94.8202C216.59 94.1861 216.338 93.7105 215.976 93.3903C215.613 93.0702 215.175 92.9102 214.662 92.9102C213.886 92.9102 213.256 93.1983 212.771 93.776C212.287 94.3538 212.044 95.2669 212.044 96.5154C212.044 97.7639 212.277 98.7029 212.745 99.2776C213.213 99.8523 213.823 100.139 214.576 100.139C215.181 100.139 215.686 99.9468 216.09 99.5612C216.495 99.177 216.752 98.584 216.86 97.7852L216.861 97.7868Z" fill="#808080"/>
<path d="M225.622 100.078C225.052 100.581 224.503 100.936 223.976 101.144C223.448 101.351 222.881 101.454 222.278 101.454C221.279 101.454 220.512 101.201 219.976 100.695C219.439 100.189 219.171 99.5429 219.171 98.7548C219.171 98.2929 219.271 97.8706 219.474 97.4895C219.677 97.1084 219.942 96.802 220.27 96.5703C220.598 96.3401 220.967 96.1648 221.378 96.0459C221.68 95.9636 222.137 95.8828 222.747 95.8066C223.991 95.6526 224.906 95.4696 225.494 95.2562C225.5 95.0367 225.503 94.898 225.503 94.8385C225.503 94.1876 225.358 93.7288 225.067 93.462C224.674 93.1007 224.089 92.9208 223.313 92.9208C222.589 92.9208 222.053 93.0519 221.709 93.3156C221.364 93.5794 221.108 94.0458 220.944 94.7151L219.438 94.5016C219.575 93.8324 219.8 93.2928 220.113 92.8812C220.427 92.4696 220.88 92.1525 221.473 91.9315C222.066 91.7089 222.753 91.5992 223.535 91.5992C224.317 91.5992 224.941 91.6937 225.425 91.8827C225.91 92.0717 226.267 92.3111 226.496 92.5977C226.724 92.8842 226.883 93.2471 226.974 93.6861C227.026 93.959 227.052 94.4498 227.052 95.1602V97.2913C227.052 98.7776 227.084 99.7167 227.151 100.111C227.217 100.505 227.346 100.883 227.54 101.244H225.932C225.771 100.913 225.669 100.525 225.624 100.081L225.622 100.078ZM225.494 96.5078C224.935 96.7441 224.096 96.9453 222.979 97.1114C222.346 97.206 221.898 97.3127 221.636 97.4316C221.374 97.5505 221.171 97.7227 221.029 97.9514C220.886 98.1801 220.816 98.4331 220.816 98.7105C220.816 99.1374 220.971 99.4926 221.282 99.7761C221.593 100.06 222.047 100.203 222.646 100.203C223.246 100.203 223.767 100.069 224.229 99.799C224.691 99.5292 225.031 99.1618 225.247 98.6938C225.412 98.3325 225.496 97.8005 225.496 97.0947V96.5093L225.494 96.5078Z" fill="#808080"/>
<path d="M232.801 99.8112L233.023 101.223C232.59 101.317 232.201 101.365 231.86 101.365C231.301 101.365 230.868 101.273 230.56 101.089C230.252 100.906 230.035 100.663 229.909 100.365C229.784 100.066 229.721 99.4362 229.721 98.4773V93.0519H228.592V91.808H229.721V89.4726L231.253 88.5137V91.808H232.802V93.0519H231.253V98.5673C231.253 99.0231 231.281 99.3157 231.334 99.4468C231.387 99.5764 231.477 99.6801 231.599 99.7578C231.721 99.834 231.898 99.8737 232.125 99.8737C232.296 99.8737 232.522 99.8523 232.801 99.8112Z" fill="#808080"/>
<path d="M234.316 90.061V88.2226H235.856V90.061H234.316ZM234.316 101.241V91.8095H235.856V101.241H234.316Z" fill="#808080"/>
<path d="M237.627 96.5261C237.627 94.7791 238.095 93.4864 239.029 92.6449C239.811 91.9467 240.763 91.5976 241.888 91.5976C243.136 91.5976 244.157 92.023 244.95 92.8721C245.743 93.7212 246.139 94.8949 246.139 96.3934C246.139 97.6069 245.964 98.5612 245.613 99.2578C245.263 99.9529 244.752 100.494 244.081 100.878C243.41 101.262 242.679 101.456 241.886 101.456C240.615 101.456 239.586 101.032 238.802 100.186C238.017 99.3401 237.625 98.1206 237.625 96.5276L237.627 96.5261ZM239.209 96.5261C239.209 97.7334 239.462 98.6389 239.971 99.2395C240.479 99.8401 241.118 100.14 241.888 100.14C242.657 100.14 243.289 99.8386 243.796 99.235C244.304 98.6313 244.558 97.7105 244.558 96.4727C244.558 95.3065 244.304 94.4224 243.793 93.8218C243.282 93.2211 242.648 92.9208 241.889 92.9208C241.13 92.9208 240.481 93.2196 239.973 93.8172C239.465 94.4148 239.211 95.3172 239.211 96.5261H239.209Z" fill="#808080"/>
<path d="M247.944 101.241V91.8095H249.33V93.151C249.997 92.1144 250.961 91.5961 252.222 91.5961C252.769 91.5961 253.272 91.6982 253.732 91.9025C254.191 92.1068 254.536 92.3751 254.763 92.7059C254.991 93.0382 255.15 93.4315 255.241 93.8873C255.298 94.183 255.327 94.7013 255.327 95.4407V101.24H253.787V95.5032C253.787 94.8522 253.728 94.3644 253.607 94.0428C253.487 93.7196 253.275 93.462 252.97 93.2699C252.665 93.0778 252.307 92.9818 251.897 92.9818C251.241 92.9818 250.674 93.1983 250.199 93.6297C249.723 94.0611 249.484 94.8812 249.484 96.0901V101.241H247.944Z" fill="#808080"/>
<path d="M263.62 100.078C263.049 100.581 262.501 100.936 261.973 101.144C261.446 101.351 260.879 101.454 260.275 101.454C259.277 101.454 258.51 101.201 257.973 100.695C257.437 100.189 257.168 99.5429 257.168 98.7548C257.168 98.2929 257.269 97.8706 257.472 97.4895C257.674 97.1084 257.94 96.802 258.267 96.5703C258.595 96.3401 258.964 96.1648 259.376 96.0459C259.678 95.9636 260.135 95.8828 260.745 95.8066C261.989 95.6526 262.903 95.4696 263.492 95.2562C263.498 95.0367 263.501 94.898 263.501 94.8385C263.501 94.1876 263.356 93.7288 263.065 93.462C262.671 93.1007 262.086 92.9208 261.31 92.9208C260.586 92.9208 260.051 93.0519 259.706 93.3156C259.362 93.5794 259.106 94.0458 258.941 94.7151L257.435 94.5016C257.572 93.8324 257.798 93.2928 258.11 92.8812C258.424 92.4696 258.877 92.1525 259.47 91.9315C260.063 91.7089 260.751 91.5992 261.533 91.5992C262.315 91.5992 262.938 91.6937 263.423 91.8827C263.908 92.0717 264.264 92.3111 264.493 92.5977C264.722 92.8842 264.88 93.2471 264.972 93.6861C265.024 93.959 265.05 94.4498 265.05 95.1602V97.2913C265.05 98.7776 265.082 99.7167 265.149 100.111C265.214 100.505 265.344 100.883 265.537 101.244H263.929C263.769 100.913 263.667 100.525 263.621 100.081L263.62 100.078ZM263.492 96.5078C262.932 96.7441 262.094 96.9453 260.976 97.1114C260.344 97.206 259.896 97.3127 259.633 97.4316C259.371 97.5505 259.168 97.7227 259.027 97.9514C258.883 98.1801 258.813 98.4331 258.813 98.7105C258.813 99.1374 258.969 99.4926 259.28 99.7761C259.591 100.06 260.045 100.203 260.644 100.203C261.243 100.203 261.764 100.069 262.226 99.799C262.688 99.5292 263.028 99.1618 263.245 98.6938C263.409 98.3325 263.493 97.8005 263.493 97.0947V96.5093L263.492 96.5078Z" fill="#808080"/>
<path d="M267.4 101.241V88.2226H268.94V101.241H267.4Z" fill="#808080"/>
<path d="M276.342 101.241V88.2226H278.841L281.81 97.4407C282.085 98.299 282.285 98.9423 282.41 99.3676C282.551 98.8935 282.774 98.1984 283.077 97.2807L286.08 88.2226H288.314V101.241H286.713V90.3446L283.068 101.241H281.571L277.943 90.1586V101.241H276.342Z" fill="#808080"/>
<path d="M297.013 98.2045L298.605 98.4087C298.353 99.3737 297.888 100.122 297.21 100.656C296.532 101.189 295.664 101.454 294.609 101.454C293.28 101.454 292.227 101.029 291.448 100.18C290.669 99.331 290.28 98.1389 290.28 96.6053C290.28 95.0718 290.673 93.7867 291.462 92.9117C292.248 92.0351 293.27 91.5976 294.524 91.5976C295.779 91.5976 296.731 92.0275 297.501 92.8858C298.271 93.744 298.657 94.9514 298.657 96.5093C298.657 96.6038 298.654 96.7456 298.648 96.9361H291.872C291.928 97.9727 292.212 98.7654 292.719 99.3157C293.227 99.8661 293.859 100.142 294.619 100.142C295.183 100.142 295.666 99.988 296.065 99.6801C296.465 99.3721 296.782 98.8813 297.015 98.206L297.013 98.2045ZM291.957 95.6206H297.03C296.962 94.8279 296.768 94.2318 296.448 93.8355C295.957 93.2196 295.321 92.9117 294.539 92.9117C293.832 92.9117 293.238 93.1571 292.756 93.648C292.274 94.1388 292.007 94.7974 291.955 95.619L291.957 95.6206Z" fill="#808080"/>
<path d="M303.901 99.8112L304.123 101.223C303.69 101.317 303.302 101.365 302.96 101.365C302.401 101.365 301.968 101.273 301.66 101.089C301.352 100.904 301.135 100.663 301.009 100.365C300.884 100.066 300.82 99.4362 300.82 98.4773V93.0519H299.69V91.808H300.82V89.4726L302.352 88.5137V91.808H303.901V93.0519H302.352V98.5673C302.352 99.0231 302.379 99.3157 302.433 99.4468C302.488 99.5764 302.574 99.6801 302.698 99.7578C302.82 99.834 302.995 99.8737 303.224 99.8737C303.395 99.8737 303.62 99.8523 303.899 99.8112H303.901Z" fill="#808080"/>
<path d="M311.627 98.2045L313.218 98.4087C312.967 99.3737 312.502 100.122 311.823 100.656C311.145 101.189 310.277 101.454 309.223 101.454C307.893 101.454 306.84 101.029 306.061 100.18C305.282 99.331 304.893 98.1389 304.893 96.6053C304.893 95.0718 305.286 93.7867 306.075 92.9117C306.861 92.0351 307.883 91.5976 309.137 91.5976C310.392 91.5976 311.345 92.0275 312.114 92.8858C312.884 93.744 313.27 94.9514 313.27 96.5093C313.27 96.6038 313.267 96.7456 313.261 96.9361H306.485C306.541 97.9727 306.825 98.7654 307.332 99.3157C307.84 99.8661 308.473 100.142 309.232 100.142C309.796 100.142 310.279 99.988 310.678 99.6801C311.078 99.3721 311.395 98.8813 311.628 98.206L311.627 98.2045ZM306.57 95.6206H311.643C311.575 94.8279 311.381 94.2318 311.061 93.8355C310.57 93.2196 309.934 92.9117 309.152 92.9117C308.445 92.9117 307.851 93.1571 307.369 93.648C306.887 94.1388 306.62 94.7974 306.569 95.619L306.57 95.6206Z" fill="#808080"/>
<path d="M314.578 96.5261C314.578 94.7791 315.046 93.4864 315.982 92.6449C316.764 91.9467 317.715 91.5976 318.84 91.5976C320.089 91.5976 321.11 92.023 321.903 92.8721C322.695 93.7212 323.092 94.8949 323.092 96.3934C323.092 97.6069 322.916 98.5612 322.566 99.2578C322.215 99.9529 321.704 100.494 321.034 100.878C320.363 101.262 319.631 101.456 318.839 101.456C317.567 101.456 316.538 101.032 315.755 100.186C314.97 99.3401 314.578 98.1206 314.578 96.5276V96.5261ZM316.16 96.5261C316.16 97.7334 316.413 98.6389 316.922 99.2395C317.43 99.8401 318.069 100.14 318.839 100.14C319.608 100.14 320.238 99.8386 320.747 99.235C321.255 98.6313 321.509 97.7105 321.509 96.4727C321.509 95.3065 321.255 94.4224 320.744 93.8218C320.233 93.2211 319.599 92.9208 318.84 92.9208C318.081 92.9208 317.431 93.2196 316.924 93.8172C316.416 94.4148 316.162 95.3172 316.162 96.5261H316.16Z" fill="#808080"/>
<path d="M324.88 101.241V91.8095H326.265V93.2394C326.619 92.5702 326.945 92.1297 327.246 91.9162C327.544 91.7028 327.874 91.5961 328.233 91.5961C328.752 91.5961 329.281 91.7684 329.816 92.1114L329.285 93.5946C328.909 93.3644 328.532 93.2486 328.156 93.2486C327.819 93.2486 327.517 93.3538 327.249 93.5641C326.98 93.7745 326.79 94.0657 326.676 94.4391C326.505 95.0077 326.419 95.6297 326.419 96.3035V101.241H324.88Z" fill="#808080"/>
<path d="M330.159 96.5261C330.159 94.7791 330.627 93.4864 331.563 92.6449C332.345 91.9467 333.296 91.5976 334.421 91.5976C335.67 91.5976 336.691 92.023 337.484 92.8721C338.276 93.7212 338.673 94.8949 338.673 96.3934C338.673 97.6069 338.497 98.5612 338.147 99.2578C337.796 99.9529 337.285 100.494 336.615 100.878C335.944 101.262 335.212 101.456 334.42 101.456C333.148 101.456 332.119 101.032 331.336 100.186C330.551 99.3401 330.159 98.1206 330.159 96.5276V96.5261ZM331.741 96.5261C331.741 97.7334 331.994 98.6389 332.503 99.2395C333.011 99.8401 333.65 100.14 334.42 100.14C335.189 100.14 335.819 99.8386 336.328 99.235C336.836 98.6313 337.09 97.7105 337.09 96.4727C337.09 95.3065 336.836 94.4224 336.325 93.8218C335.814 93.2211 335.18 92.9208 334.421 92.9208C333.662 92.9208 333.013 93.2196 332.505 93.8172C331.997 94.4148 331.743 95.3172 331.743 96.5261H331.741Z" fill="#808080"/>
<path d="M340.443 101.241V88.2226H341.982V101.241H340.443Z" fill="#808080"/>
<path d="M343.796 96.5261C343.796 94.7791 344.264 93.4864 345.2 92.6449C345.982 91.9467 346.934 91.5976 348.059 91.5976C349.307 91.5976 350.328 92.023 351.121 92.8721C351.914 93.7212 352.31 94.8949 352.31 96.3934C352.31 97.6069 352.135 98.5612 351.784 99.2578C351.434 99.9529 350.923 100.494 350.252 100.878C349.581 101.262 348.85 101.456 348.057 101.456C346.786 101.456 345.757 101.032 344.973 100.186C344.188 99.3401 343.796 98.1206 343.796 96.5276V96.5261ZM345.379 96.5261C345.379 97.7334 345.632 98.6389 346.141 99.2395C346.648 99.8401 347.287 100.14 348.057 100.14C348.827 100.14 349.456 99.8386 349.966 99.235C350.473 98.6313 350.728 97.7105 350.728 96.4727C350.728 95.3065 350.473 94.4224 349.963 93.8218C349.452 93.2211 348.818 92.9208 348.059 92.9208C347.299 92.9208 346.65 93.2196 346.142 93.8172C345.635 94.4148 345.38 95.3172 345.38 96.5261H345.379Z" fill="#808080"/>
<path d="M353.833 102.023L355.33 102.253C355.392 102.733 355.566 103.083 355.851 103.301C356.234 103.596 356.755 103.744 357.417 103.744C358.13 103.744 358.681 103.596 359.068 103.301C359.455 103.005 359.719 102.59 359.854 102.057C359.934 101.73 359.972 101.047 359.966 100.005C359.292 100.828 358.453 101.24 357.45 101.24C356.202 101.24 355.234 100.772 354.549 99.8371C353.865 98.9011 353.522 97.7791 353.522 96.4712C353.522 95.5718 353.679 94.741 353.993 93.9803C354.307 93.2196 354.761 92.6327 355.357 92.2181C355.953 91.8034 356.653 91.5961 357.458 91.5961C358.53 91.5961 359.414 92.0458 360.111 92.9467V91.8095H361.531V99.9621C361.531 101.43 361.386 102.471 361.1 103.084C360.813 103.697 360.356 104.18 359.731 104.535C359.106 104.891 358.338 105.069 357.424 105.069C356.341 105.069 355.466 104.816 354.798 104.31C354.13 103.804 353.809 103.041 353.831 102.023H353.833ZM355.107 96.3569C355.107 97.5947 355.344 98.4971 355.818 99.0657C356.292 99.6343 356.885 99.9179 357.597 99.9179C358.309 99.9179 358.897 99.6359 359.376 99.0703C359.854 98.5048 360.094 97.6175 360.094 96.4102C360.094 95.2029 359.847 94.3858 359.354 93.7989C358.86 93.2135 358.266 92.9193 357.571 92.9193C356.876 92.9193 356.304 93.2074 355.825 93.7852C355.347 94.3629 355.107 95.2196 355.107 96.3569Z" fill="#808080"/>
<path d="M363.792 104.874L363.621 103.374C363.958 103.468 364.251 103.516 364.502 103.516C364.845 103.516 365.118 103.456 365.324 103.337C365.53 103.218 365.698 103.054 365.829 102.84C365.926 102.68 366.082 102.284 366.3 101.65C366.329 101.561 366.374 101.43 366.437 101.259L362.989 91.8111H364.649L366.539 97.2731C366.784 97.9651 367.004 98.6938 367.198 99.4575C367.374 98.7228 367.585 98.0078 367.83 97.3081L369.772 91.8111H371.312L367.856 101.403C367.486 102.439 367.198 103.153 366.992 103.543C366.717 104.07 366.405 104.456 366.051 104.702C365.698 104.947 365.275 105.07 364.784 105.07C364.487 105.07 364.156 105.005 363.792 104.875V104.874Z" fill="#808080"/>
<defs>
<linearGradient id="paint0_linear_4962_9775" x1="14.6732" y1="14.7201" x2="82.494" y2="82.5398" gradientUnits="userSpaceOnUse">
<stop stop-color="#02BFE7"/>
<stop offset="1" stop-color="#0EC14B"/>
</linearGradient>
<linearGradient id="paint1_linear_4962_9775" x1="19.3305" y1="29.4629" x2="87.1673" y2="97.3008" gradientUnits="userSpaceOnUse">
<stop stop-color="#02BFE7"/>
<stop offset="0.2" stop-color="#05BFBD"/>
<stop offset="0.46" stop-color="#08C08C"/>
<stop offset="0.69" stop-color="#0BC068"/>
<stop offset="0.88" stop-color="#0DC052"/>
<stop offset="1" stop-color="#0EC14B"/>
</linearGradient>
<linearGradient id="paint2_linear_4962_9775" x1="22.8422" y1="12.7479" x2="90.6726" y2="80.5772" gradientUnits="userSpaceOnUse">
<stop stop-color="#02BFE7"/>
<stop offset="1" stop-color="#0EC14B"/>
</linearGradient>
</defs>
</svg>
