<svg xmlns="http://www.w3.org/2000/svg" width="557.502" height="251.434" viewBox="0 0 557.502 251.434"><defs><style>.cls-1{fill:#40bbf0}.cls-2{fill:#31393e}</style></defs><g id="Group_84" data-name="Group 84" transform="translate(-867 -1107.132)"><g id="Group_33" data-name="Group 33" transform="translate(867 1107.132)"><g id="Group_31" data-name="Group 31" transform="translate(14.855)"><path id="Path_53" data-name="Path 53" class="cls-1" d="M137.272 397.27l93.763-146.9a3.01 3.01 0 00-4.161-4.153l-110.726 71a8.966 8.966 0 00-3.61 10.559z" transform="translate(-112.018 -245.723)"/></g><g id="Group_32" data-name="Group 32" transform="translate(0 99.887)"><path id="Path_54" data-name="Path 54" class="cls-1" d="M200.831 282.332l-93.763 146.9a3.01 3.01 0 004.161 4.153l110.726-71a8.97 8.97 0 003.61-10.559z" transform="translate(-106.574 -282.332)"/></g></g><g id="Group_38" data-name="Group 38" transform="translate(1019.281 1182.728)"><path id="Path_57" data-name="Path 57" class="cls-2" d="M228.687 322.893a25.217 25.217 0 00-9.468-8.21c-4.164-2.235-9.959-4.172-17.219-5.76-7.094-1.544-11.85-3.1-14.133-4.614a6.7 6.7 0 01-3.214-5.94 8.022 8.022 0 013.492-6.881 15.637 15.637 0 019.416-2.636c4.15 0 7.5 1.119 9.951 3.326a10.536 10.536 0 013.656 8.234v.794h20.013v-.794a24 24 0 00-9.334-19.536c-6.142-4.944-14.311-7.449-24.286-7.449-9.32 0-17.135 2.458-23.23 7.3-6.145 4.89-9.263 11.083-9.263 18.409 0 8.72 4.808 15.446 14.283 19.989a70.05 70.05 0 0015.858 5.075c6.136 1.293 10.573 2.791 13.187 4.45a7.553 7.553 0 013.689 6.848 7.758 7.758 0 01-3.449 6.63c-2.368 1.727-5.929 2.6-10.581 2.6-4.835 0-8.747-1.132-11.626-3.364s-4.376-5.318-4.6-9.44l-.038-.75h-19.4v.791a24.555 24.555 0 004.509 14.155 30.337 30.337 0 0012.605 10.262 43.483 43.483 0 0018.264 3.705c10.06 0 18.319-2.358 24.548-7 6.3-4.7 9.495-10.949 9.495-18.567a20.964 20.964 0 00-3.125-11.627z" transform="translate(-162.386 -273.429)"/><path id="Path_58" data-name="Path 58" d="M228.687 322.893a25.217 25.217 0 00-9.468-8.21c-4.164-2.235-9.959-4.172-17.219-5.76-7.094-1.544-11.85-3.1-14.133-4.614a6.7 6.7 0 01-3.214-5.94 8.022 8.022 0 013.492-6.881 15.637 15.637 0 019.416-2.636c4.15 0 7.5 1.119 9.951 3.326a10.536 10.536 0 013.656 8.234v.794h20.013v-.794a24 24 0 00-9.334-19.536c-6.142-4.944-14.311-7.449-24.286-7.449-9.32 0-17.135 2.458-23.23 7.3-6.145 4.89-9.263 11.083-9.263 18.409 0 8.72 4.808 15.446 14.283 19.989a70.05 70.05 0 0015.858 5.075c6.136 1.293 10.573 2.791 13.187 4.45a7.553 7.553 0 013.689 6.848 7.758 7.758 0 01-3.449 6.63c-2.368 1.727-5.929 2.6-10.581 2.6-4.835 0-8.747-1.132-11.626-3.364s-4.376-5.318-4.6-9.44l-.038-.75h-19.4v.791a24.555 24.555 0 004.509 14.155 30.337 30.337 0 0012.605 10.262 43.483 43.483 0 0018.264 3.705c10.06 0 18.319-2.358 24.548-7 6.3-4.7 9.495-10.949 9.495-18.567a20.964 20.964 0 00-3.125-11.627z" transform="translate(-162.386 -273.429)" fill="none"/></g><g id="Group_39" data-name="Group 39" transform="translate(1164.472 1183.595)"><path id="Path_59" data-name="Path 59" class="cls-2" d="M258.718 273.747a43.127 43.127 0 1043.137 43.137 43.137 43.137 0 00-43.137-43.137zm0 68.806a25.668 25.668 0 1125.667-25.669 25.654 25.654 0 01-25.667 25.669z" transform="translate(-215.6 -273.747)"/></g><g id="Group_40" data-name="Group 40" transform="translate(1256.899 1187.527)"><path id="Path_60" data-name="Path 60" class="cls-2" d="M319.015 303.951a28.772 28.772 0 00-28.766-28.763h-40.774v82.124h19.754v-24.595h12.128l12.564 24.873h22.114l-13.874-27.454a28.759 28.759 0 0016.854-26.185zm-30.493 10.919a.675.675 0 01-.2.019h-19.1v-21.835h19.1a.677.677 0 01.2.019 10.9 10.9 0 010 21.8z" transform="translate(-249.475 -275.188)"/></g><path id="Path_61" data-name="Path 61" class="cls-2" d="M261.035 275.241h-71.184V295h25.715v62.37h19.754V295h25.715z" transform="translate(904.367 912.43)"/><path id="Path_62" data-name="Path 62" class="cls-2" d="M263.714 289.751a.677.677 0 00.2-.019v.019z" transform="translate(1032.035 937.477)"/><path id="Path_63" data-name="Path 63" class="cls-2" d="M348.231 275.2v.02l-25.29 38.313-25.31-38.333h-19.752v82.283h19.752V311l25.31 38.277 25.29-38.264v46.463h19.752V275.2z" transform="translate(1056.519 912.352)"/><g id="Group_41" data-name="Group 41" transform="translate(1025.4 1289.909)"><path id="Path_64" data-name="Path 64" class="cls-1" d="M182.893 328.526a8.315 8.315 0 01-2.718 5.735 9.238 9.238 0 01-6.292 2.06 9 9 0 01-4.843-1.3 8.5 8.5 0 01-3.225-3.694 13.441 13.441 0 01-1.187-5.58v-2.139a13.464 13.464 0 011.154-5.738 8.688 8.688 0 013.31-3.817 9.221 9.221 0 014.974-1.345 8.86 8.86 0 016.125 2.068 8.635 8.635 0 012.7 5.847h-3.975a5.712 5.712 0 00-1.449-3.58 4.767 4.767 0 00-3.4-1.1 4.67 4.67 0 00-4 1.9 9.5 9.5 0 00-1.427 5.58v2.033a10.064 10.064 0 001.337 5.683 4.429 4.429 0 003.9 1.956 5.173 5.173 0 003.533-1.056 5.51 5.51 0 001.5-3.52z" transform="translate(-164.629 -312.712)"/><path id="Path_65" data-name="Path 65" class="cls-1" d="M178.7 332.621h10.442v3.179h-14.427v-22.968h3.985z" transform="translate(-147.196 -312.505)"/><path id="Path_66" data-name="Path 66" class="cls-1" d="M202.012 325.124a14.1 14.1 0 01-1.168 5.923 8.805 8.805 0 01-3.334 3.913 9.826 9.826 0 01-9.981 0 8.886 8.886 0 01-3.375-3.891 13.822 13.822 0 01-1.211-5.828v-1.291a13.962 13.962 0 011.19-5.932 8.991 8.991 0 013.364-3.937 9.123 9.123 0 014.979-1.37 9.23 9.23 0 014.979 1.351 8.891 8.891 0 013.359 3.883 13.925 13.925 0 011.2 5.9zm-3.989-1.2a10.035 10.035 0 00-1.446-5.855 5.107 5.107 0 00-8.15-.008 9.807 9.807 0 00-1.482 5.733v1.329a9.961 9.961 0 001.471 5.847 5.111 5.111 0 008.174.052 10.137 10.137 0 001.432-5.9z" transform="translate(-132.974 -312.712)"/><path id="Path_67" data-name="Path 67" class="cls-1" d="M210.511 312.832v15.345a7.481 7.481 0 01-2.338 5.8 10.282 10.282 0 01-12.51.03 7.483 7.483 0 01-2.319-5.844v-15.331h3.975V328.2a4.866 4.866 0 001.173 3.511 4.563 4.563 0 003.443 1.222q4.6 0 4.6-4.862v-15.239z" transform="translate(-114.997 -312.505)"/><path id="Path_68" data-name="Path 68" class="cls-1" d="M203.286 335.8v-22.968h6.794a10.647 10.647 0 015.4 1.356 9.275 9.275 0 013.656 3.844 12.184 12.184 0 011.3 5.711v1.16a12.107 12.107 0 01-1.307 5.738 9.171 9.171 0 01-3.705 3.817 11.148 11.148 0 01-5.524 1.342zm3.989-19.765v16.583h2.608a6 6 0 004.824-1.97 8.553 8.553 0 001.708-5.645v-1.274a8.8 8.8 0 00-1.623-5.719 5.75 5.75 0 00-4.712-1.975z" transform="translate(-97.812 -312.505)"/><path id="Path_69" data-name="Path 69" class="cls-1" d="M232.472 330.458h-8.906L221.7 335.8h-4.144l8.682-22.971h3.572l8.7 22.971h-4.161zm-7.784-3.22h6.663l-3.337-9.53z" transform="translate(-73.144 -312.505)"/><path id="Path_70" data-name="Path 70" class="cls-1" d="M246.273 328.526a8.315 8.315 0 01-2.717 5.735 9.226 9.226 0 01-6.289 2.06 9 9 0 01-4.843-1.3 8.5 8.5 0 01-3.225-3.694 13.442 13.442 0 01-1.187-5.58v-2.139a13.465 13.465 0 011.154-5.738 8.672 8.672 0 013.31-3.817 9.222 9.222 0 014.974-1.345 8.861 8.861 0 016.125 2.068 8.621 8.621 0 012.7 5.847H242.3a5.71 5.71 0 00-1.446-3.58 4.766 4.766 0 00-3.4-1.1 4.671 4.671 0 00-4 1.9 9.477 9.477 0 00-1.427 5.58v2.033a10.065 10.065 0 001.337 5.683 4.429 4.429 0 003.9 1.956 5.173 5.173 0 003.533-1.056 5.5 5.5 0 001.5-3.52z" transform="translate(-55.075 -312.712)"/><path id="Path_71" data-name="Path 71" class="cls-1" d="M256.094 328.526a8.315 8.315 0 01-2.718 5.735 9.233 9.233 0 01-6.292 2.06 8.982 8.982 0 01-4.84-1.3 8.485 8.485 0 01-3.228-3.694 13.486 13.486 0 01-1.187-5.58v-2.139a13.463 13.463 0 011.154-5.738 8.705 8.705 0 013.31-3.817 9.228 9.228 0 014.974-1.345 8.873 8.873 0 016.128 2.068 8.645 8.645 0 012.7 5.847h-3.975a5.711 5.711 0 00-1.449-3.58 4.767 4.767 0 00-3.4-1.1 4.665 4.665 0 00-3.994 1.9 9.475 9.475 0 00-1.43 5.58v2.033a10.064 10.064 0 001.337 5.683 4.432 4.432 0 003.9 1.956 5.173 5.173 0 003.533-1.056 5.5 5.5 0 001.5-3.52z" transform="translate(-38.105 -312.712)"/><path id="Path_72" data-name="Path 72" class="cls-1" d="M266.718 325.124a14.094 14.094 0 01-1.168 5.923 8.8 8.8 0 01-3.334 3.913 9.827 9.827 0 01-9.981 0 8.885 8.885 0 01-3.375-3.891 13.823 13.823 0 01-1.211-5.828v-1.291a13.961 13.961 0 011.19-5.932 8.992 8.992 0 013.364-3.937 9.123 9.123 0 014.98-1.37 9.23 9.23 0 014.979 1.351 8.873 8.873 0 013.359 3.883 13.927 13.927 0 011.2 5.9zm-3.989-1.2a10.035 10.035 0 00-1.446-5.855 5.1 5.1 0 00-8.147-.008 9.786 9.786 0 00-1.484 5.733v1.329a9.961 9.961 0 001.471 5.847 5.111 5.111 0 008.174.052 10.136 10.136 0 001.432-5.9z" transform="translate(-21.133 -312.712)"/><path id="Path_73" data-name="Path 73" class="cls-1" d="M275.218 312.832v15.345a7.481 7.481 0 01-2.338 5.8 10.282 10.282 0 01-12.51.03 7.483 7.483 0 01-2.319-5.844v-15.331h3.975V328.2a4.866 4.866 0 001.173 3.511 4.562 4.562 0 003.443 1.222q4.6 0 4.6-4.862v-15.239z" transform="translate(-3.156 -312.505)"/><path id="Path_74" data-name="Path 74" class="cls-1" d="M286.216 335.8h-3.989l-10.248-16.3v16.3h-3.986v-22.968h3.986l10.273 16.36v-16.36h3.964z" transform="translate(14.03 -312.505)"/><path id="Path_75" data-name="Path 75" class="cls-1" d="M296.132 316.038h-7.17V335.8h-3.967v-19.762h-7.1v-3.206h18.24z" transform="translate(31.14 -312.505)"/><path id="Path_76" data-name="Path 76" class="cls-1" d="M291.829 335.8h-3.975v-22.968h3.975z" transform="translate(48.359 -312.505)"/><path id="Path_77" data-name="Path 77" class="cls-1" d="M311.422 335.8h-3.989l-10.245-16.3v16.3H293.2v-22.968h3.986l10.273 16.36v-16.36h3.962z" transform="translate(57.601 -312.505)"/><path id="Path_78" data-name="Path 78" class="cls-1" d="M321.731 333.025a7.649 7.649 0 01-3.454 2.461 14.082 14.082 0 01-5.02.835 9.875 9.875 0 01-5.11-1.31 8.724 8.724 0 01-3.435-3.749 13.146 13.146 0 01-1.258-5.683v-1.8q0-5.214 2.5-8.142a8.642 8.642 0 016.952-2.928 9.18 9.18 0 016.1 1.9 8.167 8.167 0 012.709 5.454h-3.91q-.667-4.146-4.824-4.145a4.72 4.72 0 00-4.074 1.934 9.835 9.835 0 00-1.441 5.678v1.76a9.389 9.389 0 001.569 5.79 5.181 5.181 0 004.363 2.06q3.061 0 4.355-1.4v-4.5h-4.734v-3.026h8.709z" transform="translate(75.321 -312.712)"/></g></g></svg>